<?xml version="1.0" standalone="no"?>
<!DOCTYPE svg PUBLIC "-//W3C//DTD SVG 20010904//EN"
 "http://www.w3.org/TR/2001/REC-SVG-20010904/DTD/svg10.dtd">
<svg version="1.0" xmlns="http://www.w3.org/2000/svg"
 width="315.000000pt" height="323.000000pt" viewBox="0 0 315.000000 323.000000"
 preserveAspectRatio="xMidYMid meet">

<g transform="translate(0.000000,323.000000) scale(0.100000,-0.100000)"
fill="#000000" stroke="none">
<path d="M0 1962 c0 -1217 1 -1270 18 -1285 10 -10 23 -17 29 -17 6 0 64 25
129 56 65 31 183 86 263 123 80 38 445 208 812 379 366 171 748 349 849 395
102 47 189 92 195 101 7 11 4 19 -10 30 -18 13 -18 16 -5 30 8 8 56 32 105 53
85 37 90 41 93 71 4 37 -23 183 -143 797 -46 237 -88 453 -92 480 l-8 50
-1118 3 -1117 2 0 -1268z m972 1036 c84 -36 166 -143 198 -260 18 -69 9 -218
-19 -291 -62 -160 -225 -267 -362 -238 -171 37 -279 189 -279 395 0 129 37
230 113 313 98 106 221 135 349 81z m512 -690 c-4 -18 -6 -48 -5 -66 1 -21 -2
-31 -9 -27 -5 3 -10 12 -10 20 0 7 -11 27 -25 43 -27 32 -22 52 6 26 17 -16
19 -15 28 10 15 37 24 33 15 -6z m-104 -27 c0 -5 -11 -12 -24 -15 -44 -11 -38
-91 6 -84 28 4 36 35 11 41 -15 3 -14 6 7 14 22 9 25 8 28 -14 2 -14 -4 -33
-14 -44 -51 -57 -122 23 -74 84 20 25 60 38 60 18z m-116 -57 c23 -22 20 -80
-4 -104 -25 -25 -32 -25 -60 -2 -16 13 -23 29 -22 51 1 59 51 90 86 55z m-149
-66 c12 -62 15 -66 35 -61 29 8 24 -16 -6 -27 -14 -6 -27 -10 -29 -10 -4 0
-25 96 -25 115 0 28 18 15 25 -17z m-65 -8 c42 -22 32 -110 -14 -132 -20 -9
-30 -8 -51 6 -20 13 -25 25 -25 56 0 62 43 95 90 70z m-112 -90 c21 -83 6 -99
-48 -54 l-31 26 7 -41 c5 -33 4 -41 -9 -41 -11 0 -20 19 -30 63 -12 54 -12 63
0 71 10 5 24 -1 44 -20 34 -33 42 -29 30 13 -5 18 -6 34 -3 37 14 14 27 -4 40
-54z m-124 -98 c6 -26 5 -32 -9 -32 -9 0 -19 9 -22 20 -9 32 -38 20 -38 -15
-1 -19 -6 -31 -16 -33 -12 -2 -19 12 -29 57 -7 32 -9 64 -6 70 11 18 26 13 26
-8 0 -11 5 -23 10 -26 17 -11 38 14 33 36 -4 12 0 25 8 30 14 9 26 -17 43 -99z
m-144 32 c0 -8 -7 -14 -15 -14 -22 0 -38 -36 -25 -60 12 -22 35 -26 46 -9 4 8
9 7 15 -2 12 -19 -9 -39 -42 -39 -68 0 -81 115 -16 139 26 10 37 5 37 -15z
m-106 -46 c-3 -4 -12 -8 -20 -8 -8 0 -14 -7 -14 -16 0 -11 6 -13 19 -9 27 8
36 -12 11 -25 -28 -15 -25 -32 5 -24 34 8 34 -19 0 -34 -44 -20 -43 -22 -70
90 -6 24 -3 29 27 41 32 13 54 5 42 -15z m-88 -19 c3 -6 1 -15 -7 -19 -10 -7
-10 -18 -2 -57 6 -26 9 -51 7 -55 -10 -15 -34 -8 -34 11 0 36 -21 80 -36 74
-30 -11 -13 29 19 42 40 17 44 18 53 4z m531 -51 c-3 -8 -6 -5 -6 6 -1 11 2
17 5 13 3 -3 4 -12 1 -19z m-87 -12 c0 -3 -4 -8 -10 -11 -5 -3 -10 -1 -10 4 0
6 5 11 10 11 6 0 10 -2 10 -4z m-105 -36 c3 -5 1 -10 -4 -10 -6 0 -11 5 -11
10 0 6 2 10 4 10 3 0 8 -4 11 -10z m-102 -40 c-3 -11 -7 -20 -9 -20 -2 0 -4 9
-4 20 0 11 4 20 9 20 5 0 7 -9 4 -20z m-153 -80 c-8 -5 -19 -10 -25 -10 -5 0
-3 5 5 10 8 5 20 10 25 10 6 0 3 -5 -5 -10z m-50 -20 c-8 -5 -19 -10 -25 -10
-5 0 -3 5 5 10 8 5 20 10 25 10 6 0 3 -5 -5 -10z"/>
<path d="M834 2935 c-7 -18 2 -45 15 -45 12 0 24 37 16 50 -9 15 -25 12 -31
-5z"/>
<path d="M789 2931 c-11 -4 -13 -13 -8 -31 6 -20 7 -21 8 -5 1 16 3 17 11 5
12 -19 18 -10 11 16 -4 14 -11 19 -22 15z"/>
<path d="M740 2909 c0 -5 -5 -7 -11 -3 -8 4 -9 -1 -4 -17 10 -32 25 -48 25
-25 0 10 4 14 12 10 8 -5 9 -2 5 10 -4 10 -7 22 -7 27 0 5 -4 9 -10 9 -5 0
-10 -5 -10 -11z"/>
<path d="M690 2871 c0 -25 18 -37 33 -22 8 8 6 11 -7 11 -12 0 -16 5 -12 15 3
8 1 15 -4 15 -6 0 -10 -9 -10 -19z"/>
<path d="M795 2868 c-73 -26 -123 -83 -132 -151 -14 -98 -8 -191 15 -233 71
-137 233 -150 319 -25 16 22 33 40 40 41 27 1 39 156 16 216 -3 9 2 14 15 14
22 0 38 17 28 28 -4 3 -16 0 -28 -7 -18 -11 -22 -11 -31 5 -23 42 -94 102
-132 113 -48 13 -70 13 -110 -1z m98 -19 c88 -24 150 -114 151 -219 1 -86 -9
-124 -33 -117 -12 3 -24 -5 -35 -24 -42 -70 -149 -92 -214 -43 -19 15 -43 45
-53 68 -20 44 -25 129 -9 170 7 20 6 27 -8 35 -16 9 -16 12 0 38 31 53 86 88
158 102 3 0 22 -4 43 -10z"/>
<path d="M655 2847 c-7 -17 9 -47 25 -47 4 0 11 8 14 17 4 10 4 14 0 10 -5 -4
-13 3 -20 15 -11 21 -13 21 -19 5z"/>
<path d="M627 2806 c-5 -12 -3 -22 5 -28 18 -11 28 -10 28 2 0 6 -4 10 -9 10
-5 0 -11 8 -13 18 -3 15 -4 15 -11 -2z"/>
<path d="M1052 2798 c-14 -14 -16 -38 -3 -38 5 0 14 7 21 15 17 20 0 41 -18
23z"/>
<path d="M1076 2701 c-3 -5 0 -11 7 -13 17 -7 38 2 31 13 -7 12 -31 12 -38 0z"/>
<path d="M1080 2641 c0 -14 5 -18 20 -14 11 3 20 12 20 19 0 8 -9 14 -20 14
-13 0 -20 -7 -20 -19z"/>
<path d="M1087 2604 c-12 -13 -7 -20 13 -20 11 0 19 5 17 10 -4 13 -21 18 -30
10z"/>
<path d="M1071 2547 c2 -1 12 -9 22 -16 14 -12 17 -11 17 3 0 10 -8 16 -22 16
-12 0 -19 -1 -17 -3z"/>
<path d="M1061 2505 c-1 -14 5 -21 19 -21 11 0 20 4 20 8 0 4 -6 8 -14 8 -8 0
-17 6 -19 13 -3 6 -6 3 -6 -8z"/>
<path d="M1211 2206 c-7 -8 -11 -27 -9 -43 2 -22 8 -28 28 -28 20 0 26 6 28
28 3 27 -12 57 -28 57 -4 0 -13 -6 -19 -14z"/>
<path d="M1000 2116 c-18 -23 -8 -61 17 -64 26 -4 39 28 23 58 -13 24 -23 25
-40 6z"/>
<path d="M3103 3223 c9 -2 25 -2 35 0 9 3 1 5 -18 5 -19 0 -27 -2 -17 -5z"/>
<path d="M3042 2453 c-88 -30 -104 -38 -118 -65 -20 -39 -13 -67 55 -212 26
-55 60 -130 77 -166 16 -35 43 -94 61 -130 l32 -65 0 338 c1 185 0 336 -1 336
-2 -1 -49 -17 -106 -36z"/>
<path d="M3050 1941 c0 -5 5 -13 10 -16 6 -3 10 -2 10 4 0 5 -4 13 -10 16 -5
3 -10 2 -10 -4z"/>
<path d="M2360 1604 c-19 -8 -38 -22 -43 -30 -4 -7 -16 -14 -26 -14 -25 0
-106 -36 -121 -55 -7 -8 -21 -15 -30 -15 -30 0 -107 -37 -113 -54 -4 -9 -18
-16 -32 -16 -32 0 -112 -37 -119 -56 -3 -8 -15 -14 -27 -14 -33 0 -119 -41
-119 -57 0 -7 14 -16 30 -19 17 -4 30 -8 30 -10 0 -2 -11 -15 -25 -29 -27 -26
-50 -32 -60 -15 -3 6 -1 10 5 10 19 0 6 45 -13 48 -28 5 -127 -45 -127 -64 0
-12 -6 -15 -22 -11 -23 7 -121 -33 -134 -54 -8 -14 14 -29 45 -29 23 0 23 -1
8 -18 -26 -28 -21 -39 28 -67 l45 -27 54 26 c30 14 57 30 60 35 3 4 -9 21 -27
37 -26 23 -40 28 -74 27 -24 -1 -43 0 -43 3 0 2 14 10 30 19 17 9 30 22 30 30
0 16 18 19 45 9 14 -6 14 -8 -2 -26 -17 -19 -17 -20 7 -38 56 -43 77 -45 136
-17 50 25 53 29 42 47 -7 11 -18 20 -25 20 -7 0 -13 6 -13 14 0 10 13 7 49
-12 38 -20 47 -30 39 -39 -6 -7 -19 -13 -29 -13 -19 0 -24 -16 -11 -36 4 -6
26 -21 49 -33 l42 -21 48 22 c52 25 63 35 57 53 -3 7 9 11 33 11 21 1 48 4 61
9 19 6 22 4 22 -17 0 -20 10 -29 48 -47 l49 -23 51 26 c29 15 52 30 52 35 0
12 -61 57 -86 63 -11 3 -29 -1 -39 -8 -27 -20 -45 -17 -45 5 0 11 -4 23 -10
26 -26 16 -6 24 26 10 32 -13 39 -13 64 0 41 21 53 20 40 -5 -9 -16 -4 -22 33
-45 24 -14 52 -25 62 -25 14 0 55 20 93 45 7 5 -11 35 -21 35 -6 0 -18 6 -26
14 -22 20 -52 22 -79 8 -22 -13 -47 -8 -37 8 5 8 -48 52 -77 63 -10 3 -18 11
-18 17 0 18 30 23 43 7 7 -8 32 -27 56 -42 43 -26 45 -27 73 -11 29 18 51 14
42 -7 -5 -13 70 -67 94 -67 22 0 92 44 92 58 0 7 -11 18 -25 24 -14 6 -25 15
-25 20 0 12 -64 10 -77 -3 -13 -13 -47 -4 -39 10 6 9 -46 53 -76 64 -22 8 -23
26 -2 34 10 4 23 -2 33 -15 24 -31 92 -62 113 -51 27 14 48 11 48 -8 0 -12 18
-26 51 -40 l50 -23 95 46 c52 25 94 50 94 54 0 16 -87 59 -108 53 -16 -4 -22
-1 -22 10 0 22 -69 67 -102 67 -18 0 -28 5 -28 15 0 17 -67 65 -92 65 -10 0
-26 9 -35 20 -21 24 -45 25 -93 4z m-10 -54 c11 -7 12 -12 3 -21 -15 -15 -43
-5 -43 16 0 17 18 19 40 5z m-25 -47 c3 -10 28 -29 55 -42 32 -15 47 -28 43
-37 -9 -23 -29 -16 -71 25 -21 21 -45 40 -52 43 -8 2 -10 10 -6 16 10 17 24
15 31 -5z m-105 -33 c0 -6 -7 -13 -15 -16 -8 -4 -15 -12 -15 -20 0 -8 -9 -14
-20 -14 -24 0 -25 5 -2 35 17 24 52 34 52 15z m310 0 c0 -6 23 -25 50 -42 55
-34 59 -42 30 -58 -16 -9 -26 -4 -61 30 -23 22 -48 40 -55 40 -14 0 -19 22 -7
33 10 11 43 8 43 -3z m-450 -67 c3 -3 -3 -10 -13 -17 -18 -14 -23 -36 -8 -36
5 0 28 -12 50 -27 32 -20 38 -29 30 -40 -16 -19 -37 -16 -44 5 -3 11 -17 24
-30 30 -14 6 -25 16 -25 22 0 5 -9 10 -20 10 -24 0 -26 13 -5 30 8 7 15 19 15
27 0 10 6 12 23 7 12 -3 24 -9 27 -11z m191 -24 c16 -8 18 -13 8 -25 -17 -21
-32 -17 -46 11 -9 21 -9 25 4 25 8 0 23 -5 34 -11z m-311 -39 c0 -5 -9 -11
-19 -15 -11 -3 -24 -12 -31 -20 -9 -11 -5 -17 22 -29 18 -9 44 -25 57 -35 l24
-19 -22 -11 c-19 -11 -26 -8 -59 27 -20 21 -45 41 -56 45 -15 6 -16 10 -6 22
7 8 10 21 7 29 -4 11 4 14 39 14 24 0 44 -3 44 -8z m138 -87 c-4 -20 -18 -26
-37 -14 -18 12 -5 31 20 31 14 0 19 -6 17 -17z m-148 -73 c0 -21 -16 -26 -39
-11 -11 7 -10 11 5 20 27 15 34 14 34 -9z"/>
<path d="M2800 1326 c-19 -13 -70 -40 -112 -61 -43 -21 -78 -44 -78 -51 0 -15
70 -54 97 -54 21 0 256 123 260 136 4 14 -72 54 -104 54 -16 0 -44 -11 -63
-24z"/>
<path d="M3026 1208 c-37 -19 -39 -21 -21 -34 25 -19 39 -18 86 7 33 17 38 23
29 35 -17 19 -48 17 -94 -8z"/>
<path d="M2826 1182 c-56 -28 -56 -27 32 -79 46 -27 68 -25 122 17 l25 19 -35
16 c-19 9 -48 24 -65 34 -30 18 -31 18 -79 -7z"/>
<path d="M2513 1178 c-24 -12 -43 -27 -43 -33 0 -5 21 -23 47 -38 l47 -29 48
23 c26 12 48 28 48 35 0 16 -49 51 -81 58 -14 3 -41 -4 -66 -16z"/>
<path d="M1298 1104 c-54 -28 -59 -39 -23 -56 21 -9 34 -7 78 12 68 31 73 36
57 55 -18 22 -58 18 -112 -11z"/>
<path d="M2373 1107 c-23 -12 -44 -28 -47 -35 -6 -14 64 -62 91 -62 25 0 103
40 103 53 0 12 -80 67 -96 66 -5 0 -28 -10 -51 -22z"/>
<path d="M2040 1091 c-8 -5 -27 -14 -42 -22 -16 -7 -28 -18 -28 -25 0 -17 69
-64 92 -64 27 0 108 42 108 57 0 17 -70 63 -95 62 -11 0 -27 -4 -35 -8z"/>
<path d="M1693 1067 c-24 -12 -43 -27 -43 -34 0 -15 69 -63 91 -63 19 0 106
37 113 48 12 20 -57 72 -93 71 -14 0 -45 -11 -68 -22z"/>
<path d="M2755 1068 c-51 -26 -50 -25 -35 -43 17 -20 43 -19 90 5 43 22 47 29
28 48 -17 17 -37 14 -83 -10z"/>
<path d="M1345 1042 c-27 -15 -50 -33 -50 -41 0 -8 21 -25 46 -39 l46 -26 56
25 c31 13 57 29 57 35 0 20 -74 76 -97 73 -4 0 -30 -13 -58 -27z"/>
<path d="M1148 1033 c-60 -27 -72 -45 -39 -62 14 -8 33 -5 73 11 78 32 85 38
58 60 -27 22 -22 22 -92 -9z"/>
<path d="M2223 1027 c-24 -11 -43 -27 -43 -34 0 -13 71 -63 90 -63 16 0 110
49 110 58 0 10 -85 62 -101 61 -8 0 -33 -10 -56 -22z"/>
<path d="M2528 1028 c-21 -12 -38 -24 -38 -27 1 -9 107 -71 122 -71 22 0 98
44 98 57 0 7 -4 13 -10 13 -5 0 -26 11 -46 25 -45 31 -77 31 -126 3z m142 -33
c0 -2 -10 -9 -22 -15 -22 -11 -22 -10 -4 4 21 17 26 19 26 11z"/>
<path d="M1900 1020 c-8 -5 -28 -15 -45 -22 -43 -19 -42 -41 4 -71 22 -15 45
-27 51 -27 21 0 110 51 110 63 0 12 -80 67 -96 66 -5 0 -16 -4 -24 -9z"/>
<path d="M1545 997 c-22 -12 -43 -26 -47 -32 -9 -13 14 -38 56 -60 33 -18 35
-18 90 6 64 28 70 45 26 77 -44 33 -79 36 -125 9z"/>
<path d="M1188 965 c-26 -14 -49 -29 -53 -35 -7 -11 71 -70 92 -70 17 0 110
46 117 59 7 11 -72 71 -93 71 -9 -1 -37 -12 -63 -25z"/>
<path d="M2382 953 c-40 -20 -72 -41 -72 -47 0 -15 95 -76 117 -76 22 0 135
62 140 77 2 6 -11 19 -30 30 -19 11 -45 28 -59 37 -23 15 -27 14 -96 -21z"/>
<path d="M973 952 c-29 -14 -53 -31 -53 -37 0 -17 22 -35 42 -35 14 0 17 -5
13 -22 -4 -18 3 -29 34 -50 22 -16 45 -28 53 -27 22 1 123 53 122 64 0 5 -20
25 -45 44 -24 18 -46 41 -48 50 -10 47 -40 51 -118 13z m93 -41 c-3 -5 -16
-11 -28 -14 -22 -6 -22 -5 -4 8 22 17 40 20 32 6z"/>
<path d="M2075 952 c-27 -15 -49 -31 -49 -37 0 -5 22 -23 48 -39 l47 -30 55
27 c32 16 54 33 51 40 -4 14 -77 66 -92 66 -5 0 -32 -12 -60 -27z m65 -26 c0
-11 -19 -15 -25 -6 -3 5 1 10 9 10 9 0 16 -2 16 -4z"/>
<path d="M1710 925 c-25 -12 -45 -28 -45 -36 0 -7 21 -26 46 -42 l46 -28 57
28 c31 15 56 32 56 38 0 13 -82 65 -101 64 -8 -1 -34 -11 -59 -24z"/>
<path d="M1388 917 c-26 -12 -48 -29 -47 -37 0 -15 70 -70 89 -70 20 0 120 55
120 66 0 15 -75 64 -97 63 -10 0 -39 -11 -65 -22z"/>
<path d="M803 872 c-33 -16 -53 -33 -53 -43 0 -34 66 -35 118 -2 13 8 26 12
29 9 3 -3 -15 -15 -40 -27 -26 -13 -49 -29 -51 -36 -6 -14 67 -73 90 -73 28 0
125 55 122 69 -2 8 -24 28 -50 45 -26 17 -47 38 -47 47 -2 45 -44 49 -118 11z"/>
<path d="M1918 874 c-27 -13 -48 -29 -48 -34 0 -5 21 -23 46 -41 l46 -32 59
29 c33 15 59 31 59 36 0 12 -81 68 -99 68 -9 -1 -37 -12 -63 -26z"/>
<path d="M1900 710 c-392 -203 -380 -196 -380 -213 1 -13 102 -87 120 -87 6 0
117 57 248 126 130 70 297 158 370 196 72 38 132 73 132 77 0 12 -115 81 -132
80 -7 -1 -168 -82 -358 -179z"/>
<path d="M1237 843 c-37 -17 -57 -32 -57 -43 0 -15 68 -70 86 -70 19 0 124 55
124 64 0 12 -37 43 -76 64 -16 8 -32 5 -77 -15z"/>
<path d="M1553 845 c-29 -13 -53 -28 -53 -34 0 -10 79 -71 93 -71 14 0 116 50
122 60 7 11 -72 70 -94 70 -9 0 -40 -11 -68 -25z"/>
<path d="M1768 798 c-32 -17 -58 -34 -58 -39 0 -10 84 -69 99 -69 16 0 121 53
121 61 0 8 -55 51 -85 66 -16 9 -32 5 -77 -19z"/>
<path d="M628 789 c-32 -16 -58 -34 -58 -39 0 -5 11 -17 24 -25 23 -15 28 -15
81 10 31 15 58 25 61 23 2 -3 -18 -15 -46 -28 -27 -13 -51 -29 -54 -36 -6 -15
64 -74 89 -74 20 0 121 45 129 59 7 10 -45 57 -81 74 -13 6 -23 18 -23 28 0
19 -28 39 -52 39 -7 -1 -39 -14 -70 -31z"/>
<path d="M1398 769 c-32 -16 -58 -34 -58 -39 0 -13 79 -70 96 -70 24 0 124 54
121 65 -4 11 -85 75 -95 75 -4 -1 -33 -14 -64 -31z"/>
<path d="M1068 759 c-32 -16 -58 -35 -58 -42 0 -15 73 -67 94 -67 18 0 126 51
126 60 -1 16 -81 81 -99 80 -3 -1 -32 -14 -63 -31z"/>
<path d="M1608 719 c-32 -16 -58 -35 -58 -42 0 -12 79 -67 97 -67 19 0 123 51
123 60 0 5 -15 20 -32 33 -63 47 -68 47 -130 16z"/>
<path d="M452 707 c-67 -34 -76 -55 -32 -70 23 -8 64 4 133 40 4 2 7 2 7 -1 0
-3 -23 -17 -51 -31 -60 -31 -60 -45 -3 -87 l41 -29 71 32 c40 17 72 35 72 40
0 12 -90 79 -106 79 -7 0 -11 6 -8 14 5 14 -31 47 -51 45 -5 0 -38 -14 -73
-32z"/>
<path d="M1238 691 c-36 -16 -58 -32 -58 -43 0 -9 21 -30 46 -47 l46 -30 64
32 c35 17 64 34 64 38 0 8 -56 51 -85 66 -15 8 -33 4 -77 -16z"/>
<path d="M903 678 c-35 -16 -63 -36 -63 -43 0 -14 73 -65 94 -65 25 0 126 51
126 64 0 11 -82 78 -92 75 -1 0 -31 -14 -65 -31z m67 -32 c0 -2 -7 -6 -15 -10
-8 -3 -15 -1 -15 4 0 6 7 10 15 10 8 0 15 -2 15 -4z"/>
<path d="M1438 634 c-27 -14 -48 -31 -48 -39 0 -8 21 -28 46 -46 l47 -32 63
31 c35 18 64 36 64 41 0 15 -86 71 -107 70 -10 0 -39 -12 -65 -25z"/>
<path d="M268 620 c-31 -16 -59 -34 -63 -39 -3 -6 6 -18 20 -27 25 -16 28 -16
93 11 85 36 90 40 67 65 -24 27 -49 25 -117 -10z"/>
<path d="M733 597 c-37 -18 -63 -38 -63 -47 0 -14 76 -70 95 -70 4 0 37 13 71
30 69 32 72 43 26 77 -58 42 -63 43 -129 10z"/>
<path d="M1062 602 c-33 -16 -52 -32 -50 -41 2 -8 22 -28 45 -45 l43 -30 52
24 c86 39 90 46 43 86 -48 40 -64 41 -133 6z"/>
<path d="M338 559 c-32 -16 -58 -35 -58 -42 1 -6 21 -27 45 -45 l44 -32 71 32
c38 18 70 37 70 43 0 17 -76 75 -97 75 -10 -1 -44 -14 -75 -31z"/>
<path d="M1275 549 c-27 -15 -50 -33 -50 -40 0 -7 21 -28 46 -46 l47 -33 60
30 c34 16 63 34 67 39 7 12 -83 81 -104 80 -9 -1 -38 -14 -66 -30z m60 -29 c3
-5 1 -10 -4 -10 -6 0 -11 5 -11 10 0 6 2 10 4 10 3 0 8 -4 11 -10z"/>
<path d="M900 525 c-83 -42 -84 -49 -11 -99 l38 -26 66 31 c37 17 67 36 67 43
0 16 -83 77 -102 75 -7 -1 -33 -12 -58 -24z m60 -39 c0 -11 -19 -15 -25 -6 -3
5 1 10 9 10 9 0 16 -2 16 -4z"/>
<path d="M503 487 c-57 -28 -103 -57 -103 -64 0 -21 89 -83 108 -74 102 45
212 102 212 110 0 15 -82 81 -99 80 -9 0 -62 -23 -118 -52z"/>
<path d="M1113 467 c-35 -17 -63 -37 -63 -44 0 -13 82 -73 100 -73 17 0 130
59 130 69 0 9 -89 81 -99 81 -3 0 -34 -15 -68 -33z m51 -33 c3 -8 2 -12 -4 -9
-6 3 -10 10 -10 16 0 14 7 11 14 -7z"/>
<path d="M1393 447 c-46 -23 -83 -47 -83 -54 0 -14 101 -93 118 -93 16 0 172
83 172 92 0 7 -60 56 -100 81 -24 14 -29 13 -107 -26z m89 1 c-6 -6 -16 -7
-22 -3 -9 6 -9 9 1 16 17 10 34 0 21 -13z m68 -45 c-8 -3 -17 -9 -20 -12 -8
-10 -102 -52 -106 -48 -6 6 109 66 126 66 13 -1 13 -1 0 -6z"/>
<path d="M660 407 c-117 -58 -139 -72 -140 -89 0 -3 22 -23 49 -42 l50 -37
135 68 c75 37 136 73 136 80 0 12 -86 84 -99 82 -3 0 -62 -28 -131 -62z m10
-97 c0 -5 -8 -10 -17 -10 -15 0 -16 2 -3 10 19 12 20 12 20 0z"/>
<path d="M818 321 c-93 -47 -168 -91 -168 -98 0 -17 82 -84 100 -81 27 5 360
178 360 187 0 13 -95 81 -111 80 -8 -1 -89 -40 -181 -88z m-18 -105 c0 -3 -4
-8 -10 -11 -5 -3 -10 -1 -10 4 0 6 5 11 10 11 6 0 10 -2 10 -4z"/>
<path d="M1195 345 c-33 -19 -60 -39 -60 -44 0 -13 105 -91 122 -91 18 0 133
61 133 72 0 9 -118 98 -129 97 -3 0 -33 -16 -66 -34z m-5 -35 c0 -5 -5 -10
-11 -10 -5 0 -7 5 -4 10 3 6 8 10 11 10 2 0 4 -4 4 -10z m105 -45 c-43 -26
-55 -30 -55 -16 0 10 59 40 80 41 8 0 -3 -11 -25 -25z"/>
<path d="M2650 304 c0 -3 18 -35 40 -71 50 -83 53 -73 5 14 -33 57 -45 73 -45
57z"/>
<path d="M1018 256 c-32 -17 -58 -36 -58 -43 0 -7 25 -32 55 -57 62 -50 58
-50 152 -1 28 15 49 32 47 39 -8 18 -110 96 -125 95 -8 -1 -40 -16 -71 -33z
m142 -54 c0 -10 -71 -45 -77 -38 -3 2 12 14 34 25 45 24 43 23 43 13z"/>
<path d="M850 169 c-88 -48 -89 -49 -23 -102 32 -26 64 -47 72 -47 17 0 141
68 141 78 0 9 -115 102 -126 102 -5 0 -34 -14 -64 -31z m80 -93 c0 -9 -30 -14
-35 -6 -4 6 3 10 14 10 12 0 21 -2 21 -4z"/>
<path d="M3 140 c-2 -36 3 -43 56 -89 55 -48 91 -64 91 -41 0 6 -3 10 -7 10
-5 0 -37 28 -73 61 -58 54 -62 60 -36 54 26 -6 28 -5 16 10 -7 9 -21 20 -30
25 -13 7 -16 2 -17 -30z"/>
<path d="M2532 44 c3 -35 6 -39 32 -42 l28 -4 -18 32 c-33 55 -46 59 -42 14z"/>
</g>
</svg>
