<?xml version="1.0" standalone="no"?>
<!DOCTYPE svg PUBLIC "-//W3C//DTD SVG 20010904//EN"
 "http://www.w3.org/TR/2001/REC-SVG-20010904/DTD/svg10.dtd">
<svg version="1.0" xmlns="http://www.w3.org/2000/svg"
 width="315.000000pt" height="323.000000pt" viewBox="0 0 315.000000 323.000000"
 preserveAspectRatio="xMidYMid meet">

<g transform="translate(0.000000,323.000000) scale(0.100000,-0.100000)"
fill="#000000" stroke="none">
<path d="M70 3227 c0 -3 16 -14 35 -26 19 -11 35 -17 35 -12 0 7 -14 15 -62
39 -5 2 -8 1 -8 -1z"/>
<path d="M2844 3199 c3 -17 6 -38 6 -46 0 -8 4 -12 10 -8 6 4 6 15 0 31 -15
38 -12 46 13 39 17 -5 19 -4 7 4 -29 21 -43 13 -36 -20z"/>
<path d="M2903 3195 c0 -7 6 -11 14 -8 7 3 13 6 13 8 0 2 -6 5 -13 8 -8 3 -14
-1 -14 -8z"/>
<path d="M785 3169 c-4 -6 -5 -12 -2 -15 2 -3 7 2 10 11 7 17 1 20 -8 4z"/>
<path d="M189 2773 c-13 -16 -12 -17 4 -4 9 7 17 15 17 17 0 8 -8 3 -21 -13z"/>
<path d="M209 2743 c-13 -16 -12 -17 4 -4 9 7 17 15 17 17 0 8 -8 3 -21 -13z"/>
<path d="M1300 2739 c-90 -38 -129 -153 -77 -229 34 -50 68 -70 132 -79 81
-11 107 -49 64 -92 -17 -17 -28 -20 -57 -14 -21 4 -49 14 -65 23 -27 16 -28
16 -63 -19 l-36 -36 33 -25 c97 -72 228 -63 285 21 45 66 26 174 -38 215 -13
8 -49 19 -82 25 -32 6 -64 16 -71 21 -20 17 -24 47 -8 69 16 24 70 29 105 10
18 -10 26 -6 61 29 l40 40 -43 22 c-49 25 -143 35 -180 19z"/>
<path d="M1590 2485 l0 -265 160 0 160 0 0 50 0 50 -105 0 -105 0 0 55 0 55
105 0 105 0 0 55 0 55 -105 0 -105 0 0 50 0 50 105 0 105 0 0 55 0 55 -160 0
-160 0 0 -265z"/>
<path d="M2148 2737 c-192 -72 -245 -299 -103 -442 80 -79 202 -99 303 -49
191 95 200 363 14 467 -63 35 -156 45 -214 24z m160 -116 c73 -37 102 -133 62
-210 -57 -113 -222 -112 -281 1 -71 137 79 281 219 209z"/>
<path d="M119 2708 c-17 -15 -43 -48 -38 -48 2 0 17 14 32 30 30 31 32 40 6
18z"/>
<path d="M49 2633 c-13 -16 -12 -17 4 -4 16 13 21 21 13 21 -2 0 -10 -8 -17
-17z"/>
<path d="M100 2630 c-9 -6 -10 -10 -3 -10 6 0 15 5 18 10 8 12 4 12 -15 0z"/>
<path d="M5 2600 c-3 -5 -1 -10 4 -10 6 0 11 5 11 10 0 6 -2 10 -4 10 -3 0 -8
-4 -11 -10z"/>
<path d="M18 2568 c5 -5 16 -8 23 -6 8 3 3 7 -10 11 -17 4 -21 3 -13 -5z"/>
<path d="M572 2475 c0 -16 2 -22 5 -12 2 9 2 23 0 30 -3 6 -5 -1 -5 -18z"/>
<path d="M572 2400 c0 -14 2 -19 5 -12 2 6 2 18 0 25 -3 6 -5 1 -5 -13z"/>
<path d="M582 2310 c0 -14 2 -19 5 -12 2 6 2 18 0 25 -3 6 -5 1 -5 -13z"/>
<path d="M591 2234 c0 -11 3 -14 6 -6 3 7 2 16 -1 19 -3 4 -6 -2 -5 -13z"/>
<path d="M650 2015 c0 -5 5 -17 10 -25 5 -8 10 -10 10 -5 0 6 -5 17 -10 25 -5
8 -10 11 -10 5z"/>
<path d="M1950 1905 c-173 -7 -403 -16 -511 -20 -109 -4 -203 -11 -210 -16
-11 -6 -8 -41 15 -186 16 -98 34 -184 39 -191 8 -10 30 -13 76 -10 62 3 66 2
69 -19 3 -22 8 -23 83 -23 50 0 78 4 74 10 -4 6 25 8 79 6 49 -2 86 0 86 5 0
5 58 9 134 8 73 -1 139 1 145 5 6 4 11 2 11 -3 0 -7 24 -11 60 -11 38 0 60 4
60 11 0 8 26 10 85 7 84 -5 85 -5 85 18 0 22 4 24 56 24 83 0 90 6 103 102 7
46 19 127 27 180 9 54 13 102 9 108 -8 12 -155 11 -575 -5z m363 -35 c-7 -7
-157 -20 -218 -18 -11 0 -31 1 -45 1 -61 1 -140 -7 -140 -15 0 -4 11 -8 24 -8
19 0 23 -4 19 -20 -4 -14 0 -20 11 -20 9 0 16 -4 16 -10 0 -18 -18 -10 -56 25
-20 19 -42 35 -48 35 -5 0 -4 6 4 14 11 11 65 17 220 23 113 5 209 7 213 5 5
-3 5 -8 0 -12z m-460 -20 c-3 -11 -1 -20 3 -20 10 0 74 -55 74 -63 0 -3 -63
-7 -140 -9 -77 -2 -140 0 -140 5 0 4 6 7 13 7 21 0 177 67 171 73 -7 7 4 27
16 27 4 0 6 -9 3 -20z m-243 3 c0 -5 -5 -15 -10 -23 -8 -13 -10 -12 -10 4 0
12 -5 16 -15 13 -8 -4 -17 -2 -20 3 -4 6 7 10 24 10 17 0 31 -3 31 -7z m90 -3
c0 -6 -11 -9 -25 -7 -37 5 -42 17 -7 17 18 0 32 -5 32 -10z m69 -4 c9 -11 6
-15 -15 -20 -14 -4 -29 -5 -32 -1 -3 3 2 5 11 5 9 0 19 5 23 12 5 8 0 9 -14 6
-12 -4 -25 -2 -28 3 -9 15 43 10 55 -5z m-437 -20 c5 -27 -19 -31 -39 -6 -18
22 -16 30 11 30 17 0 25 -7 28 -24z m98 5 c-8 -16 -6 -20 8 -24 11 -3 8 -5 -9
-6 -18 -1 -29 6 -37 24 -11 24 -10 25 19 25 26 0 29 -2 19 -19z m94 10 c6 -9
-16 -21 -39 -21 -7 0 -15 7 -19 15 -4 11 2 15 24 15 16 0 31 -4 34 -9z m186
-31 c0 -4 -11 -11 -24 -14 -13 -3 -32 -9 -42 -13 -12 -4 -15 -3 -10 5 4 7 16
12 27 12 11 0 22 7 25 15 6 15 24 11 24 -5z m-197 -7 c-7 -2 -19 -2 -25 0 -7
3 -2 5 12 5 14 0 19 -2 13 -5z m747 -24 c-7 -11 -14 -19 -16 -16 -7 7 7 37 17
37 6 0 5 -9 -1 -21z m-810 -3 c0 -9 -30 -14 -35 -6 -4 6 3 10 14 10 12 0 21
-2 21 -4z m90 -3 c0 -1 -9 -7 -19 -12 -14 -8 -20 -7 -24 3 -4 10 2 13 19 12
13 0 24 -2 24 -3z m-180 -23 c0 -5 -7 -7 -15 -4 -8 4 -15 8 -15 10 0 2 7 4 15
4 8 0 15 -4 15 -10z m1081 -31 c4 -18 6 -35 5 -36 -1 -1 -18 2 -38 7 -30 9
-35 14 -31 35 5 22 25 35 48 31 5 -2 13 -18 16 -37z m-971 22 c0 -12 -28 -22
-34 -12 -3 5 -3 11 1 15 9 9 33 7 33 -3z m68 -17 c-9 -10 -21 -13 -29 -8 -9 5
-8 9 7 15 31 12 39 10 22 -7z m-237 -21 c-8 -15 -10 -15 -11 -2 0 17 10 32 18
25 2 -3 -1 -13 -7 -23z m364 17 c3 -5 1 -10 -4 -10 -6 0 -11 5 -11 10 0 6 2
10 4 10 3 0 8 -4 11 -10z m135 -16 c0 -8 -5 -12 -10 -9 -6 4 -8 11 -5 16 9 14
15 11 15 -7z m67 -6 c-3 -8 -6 -5 -6 6 -1 11 2 17 5 13 3 -3 4 -12 1 -19z m77
7 c3 -8 1 -15 -4 -15 -6 0 -10 7 -10 15 0 8 2 15 4 15 2 0 6 -7 10 -15z m33
-37 c-3 -7 -5 -2 -5 12 0 14 2 19 5 13 2 -7 2 -19 0 -25z m-285 -27 c-5 -3
-12 -13 -15 -21 -4 -10 -6 -8 -6 8 -1 12 4 22 10 22 6 0 9 6 6 14 -3 8 -3 17
1 21 4 4 9 -3 10 -15 2 -13 0 -25 -6 -29z m82 34 c-4 -8 -8 -15 -10 -15 -2 0
-4 7 -4 15 0 8 4 15 10 15 5 0 7 -7 4 -15z m66 0 c0 -8 -2 -15 -4 -15 -2 0 -6
7 -10 15 -3 8 -1 15 4 15 6 0 10 -7 10 -15z m73 -4 c3 -13 -1 -21 -14 -24 -11
-3 -19 -1 -19 4 0 5 5 9 11 9 6 0 9 7 5 15 -3 8 -2 15 3 15 5 0 11 -9 14 -19z
m515 2 c22 -5 23 -9 17 -52 -4 -25 -12 -49 -17 -52 -6 -4 -63 -8 -127 -8 -64
-1 -215 -6 -336 -11 -121 -5 -272 -9 -335 -8 -113 1 -114 1 -53 11 60 9 62 10
58 38 -2 16 1 29 7 29 6 0 8 -8 6 -18 -7 -24 15 -42 49 -41 l28 1 -25 7 -25 7
24 8 c18 6 28 4 36 -8 7 -9 22 -16 35 -16 18 0 20 3 10 15 -6 8 -9 19 -5 25 4
7 15 2 29 -14 12 -15 32 -26 44 -26 26 0 27 6 7 26 -19 19 -19 34 0 34 9 0 12
-6 9 -15 -4 -9 0 -15 10 -15 9 0 16 -4 16 -10 0 -5 11 -10 25 -10 16 0 25 6
25 16 0 10 6 14 15 10 8 -3 15 0 15 7 0 8 4 6 10 -3 8 -12 10 -10 10 9 0 16 4
21 15 17 10 -3 15 1 15 13 0 10 7 21 15 25 21 8 19 -7 -5 -37 -26 -33 -25 -37
5 -37 18 0 25 5 25 20 0 11 5 20 10 20 6 0 10 -7 10 -15 0 -8 7 -15 16 -15 10
0 14 -6 10 -15 -4 -11 2 -15 23 -15 16 0 31 5 33 11 2 7 12 7 32 -2 25 -12 30
-11 42 6 8 10 14 13 14 7 0 -14 104 -16 135 -2 11 5 14 9 7 9 -7 1 -11 5 -8
10 3 4 1 22 -4 40 -9 34 -1 38 48 24z m-611 -45 c-3 -7 -5 -2 -5 12 0 14 2 19
5 13 2 -7 2 -19 0 -25z m293 11 c0 -6 -4 -7 -10 -4 -5 3 -10 11 -10 16 0 6 5
7 10 4 6 -3 10 -11 10 -16z m207 -1 c-3 -8 -6 -5 -6 6 -1 11 2 17 5 13 3 -3 4
-12 1 -19z m-707 -8 c0 -11 -4 -20 -9 -20 -5 0 -7 9 -4 20 3 11 7 20 9 20 2 0
4 -9 4 -20z m140 5 c0 -8 -2 -15 -4 -15 -2 0 -6 7 -10 15 -3 8 -1 15 4 15 6 0
10 -7 10 -15z m215 5 c3 -5 1 -10 -4 -10 -6 0 -11 5 -11 10 0 6 2 10 4 10 3 0
8 -4 11 -10z m-35 -35 c0 -14 -2 -25 -4 -25 -2 0 -6 11 -8 25 -3 14 -1 25 3
25 5 0 9 -11 9 -25z m220 4 c0 -11 -4 -17 -10 -14 -5 3 -10 13 -10 21 0 8 5
14 10 14 6 0 10 -9 10 -21z m70 1 c0 -11 -2 -20 -4 -20 -2 0 -6 9 -9 20 -3 11
-1 20 4 20 5 0 9 -9 9 -20z m-500 0 c0 -5 -4 -10 -10 -10 -5 0 -10 5 -10 10 0
6 5 10 10 10 6 0 10 -4 10 -10z m-144 -20 c0 -11 -4 -20 -8 -20 -4 0 -8 9 -8
20 0 11 4 20 8 20 4 0 8 -9 8 -20z m-236 0 c-11 -7 -11 -10 -2 -10 7 0 10 -5
7 -10 -4 -6 -11 -7 -17 -4 -6 4 -8 -1 -3 -16 5 -15 4 -20 -4 -16 -15 10 -14
53 2 59 21 9 33 7 17 -3z m170 -44 c0 -2 -16 -6 -35 -8 -19 -2 -35 0 -35 4 0
4 16 8 35 8 19 0 35 -2 35 -4z"/>
<path d="M1965 1582 c-10 -10 7 -22 31 -22 31 0 27 23 -4 25 -12 1 -24 0 -27
-3z"/>
<path d="M2060 1580 c-12 -8 -10 -10 8 -10 13 0 20 4 17 10 -7 12 -6 12 -25 0z"/>
<path d="M720 1865 c0 -5 5 -17 10 -25 5 -8 10 -10 10 -5 0 6 -5 17 -10 25 -5
8 -10 11 -10 5z"/>
<path d="M0 1735 l0 -65 85 0 85 0 0 65 0 65 -85 0 -85 0 0 -65z"/>
<path d="M910 1596 c0 -2 8 -10 18 -17 15 -13 16 -12 3 4 -13 16 -21 21 -21
13z"/>
<path d="M970 1536 c0 -2 8 -10 18 -17 15 -13 16 -12 3 4 -13 16 -21 21 -21
13z"/>
<path d="M1090 1436 c0 -3 9 -10 20 -16 11 -6 20 -8 20 -6 0 3 -9 10 -20 16
-11 6 -20 8 -20 6z"/>
<path d="M2277 1434 c-17 -17 -5 -34 24 -34 24 0 30 4 27 18 -3 17 -38 29 -51
16z"/>
<path d="M2345 1430 c-4 -7 -3 -16 3 -22 14 -14 65 -1 59 15 -5 16 -53 21 -62
7z"/>
<path d="M1965 1420 c-4 -7 -3 -16 3 -22 14 -14 57 -6 57 12 0 18 -50 26 -60
10z"/>
<path d="M2040 1409 c0 -16 5 -20 27 -17 17 2 29 10 31 21 3 13 -3 17 -27 17
-25 0 -31 -4 -31 -21z"/>
<path d="M2120 1415 c0 -10 10 -15 30 -15 20 0 30 5 30 15 0 10 -10 15 -30 15
-20 0 -30 -5 -30 -15z"/>
<path d="M2190 1415 c0 -10 10 -15 30 -15 20 0 30 5 30 15 0 10 -10 15 -30 15
-20 0 -30 -5 -30 -15z"/>
<path d="M1678 1413 c-31 -8 -21 -33 12 -33 23 0 30 4 30 20 0 20 -8 22 -42
13z"/>
<path d="M1740 1399 c0 -16 5 -20 27 -17 17 2 29 10 31 21 3 13 -3 17 -27 17
-25 0 -31 -4 -31 -21z"/>
<path d="M1810 1405 c0 -10 11 -15 35 -15 24 0 35 5 35 15 0 10 -11 15 -35 15
-24 0 -35 -5 -35 -15z"/>
<path d="M1890 1405 c0 -10 10 -15 30 -15 20 0 30 5 30 15 0 10 -10 15 -30 15
-20 0 -30 -5 -30 -15z"/>
<path d="M1437 1403 c-18 -17 -5 -33 28 -33 28 0 35 4 35 20 0 15 -7 20 -28
20 -16 0 -32 -3 -35 -7z"/>
<path d="M1510 1396 c0 -20 16 -29 40 -21 32 10 25 35 -10 35 -19 0 -30 -5
-30 -14z"/>
<path d="M1590 1395 c0 -10 10 -15 30 -15 20 0 30 5 30 15 0 10 -10 15 -30 15
-20 0 -30 -5 -30 -15z"/>
<path d="M1360 1385 c0 -10 10 -15 30 -15 20 0 30 5 30 15 0 10 -10 15 -30 15
-20 0 -30 -5 -30 -15z"/>
<path d="M2166 1382 c-3 -5 -2 -18 1 -30 4 -16 13 -22 35 -22 26 0 29 3 26 28
-2 21 -9 28 -30 30 -14 2 -29 -1 -32 -6z"/>
<path d="M2240 1360 c0 -27 3 -30 30 -30 27 0 30 3 30 30 0 27 -3 30 -30 30
-27 0 -30 -3 -30 -30z"/>
<path d="M2312 1363 c3 -26 6 -28 48 -28 42 0 45 2 48 28 3 26 2 27 -48 27
-50 0 -51 -1 -48 -27z"/>
<path d="M1877 1373 c-4 -3 -7 -17 -7 -30 0 -19 5 -23 30 -23 27 0 30 3 30 30
0 25 -4 30 -23 30 -13 0 -27 -3 -30 -7z"/>
<path d="M1944 1366 c-11 -28 4 -46 36 -46 28 0 31 3 28 28 -2 21 -9 28 -31
30 -18 2 -29 -2 -33 -12z"/>
<path d="M2020 1349 c0 -27 3 -30 28 -27 21 2 28 9 30 31 3 24 0 27 -27 27
-28 0 -31 -3 -31 -31z"/>
<path d="M2090 1355 c0 -21 5 -25 30 -25 25 0 30 4 30 25 0 21 -5 25 -30 25
-25 0 -30 -4 -30 -25z"/>
<path d="M1587 1363 c-4 -3 -7 -17 -7 -30 0 -19 5 -23 30 -23 27 0 30 3 30 30
0 25 -4 30 -23 30 -13 0 -27 -3 -30 -7z"/>
<path d="M1650 1340 c0 -27 3 -30 30 -30 27 0 30 3 30 30 0 27 -3 30 -30 30
-27 0 -30 -3 -30 -30z"/>
<path d="M1730 1340 c0 -27 3 -30 30 -30 27 0 30 3 30 30 0 27 -3 30 -30 30
-27 0 -30 -3 -30 -30z"/>
<path d="M1800 1346 c0 -30 9 -37 38 -29 15 3 22 13 22 29 0 20 -5 24 -30 24
-25 0 -30 -4 -30 -24z"/>
<path d="M1360 1330 c0 -27 3 -30 30 -30 27 0 30 3 30 30 0 27 -3 30 -30 30
-27 0 -30 -3 -30 -30z"/>
<path d="M1432 1333 c2 -21 9 -29 27 -31 30 -5 45 10 36 37 -5 15 -15 21 -36
21 -27 0 -30 -3 -27 -27z"/>
<path d="M1510 1330 c0 -19 5 -30 14 -30 30 0 46 13 46 36 0 20 -5 24 -30 24
-27 0 -30 -3 -30 -30z"/>
<path d="M2143 1313 c-13 -5 -18 -45 -8 -55 3 -3 17 -3 31 0 20 4 25 10 22 31
-3 25 -20 35 -45 24z"/>
<path d="M2204 1305 c-11 -27 4 -45 37 -45 28 0 31 3 25 23 -3 12 -6 25 -6 30
0 14 -51 7 -56 -8z"/>
<path d="M2280 1290 c0 -27 3 -30 30 -30 27 0 30 3 30 30 0 27 -3 30 -30 30
-27 0 -30 -3 -30 -30z"/>
<path d="M2350 1290 c0 -27 3 -30 30 -30 27 0 30 3 30 30 0 27 -3 30 -30 30
-27 0 -30 -3 -30 -30z"/>
<path d="M1917 1303 c-4 -3 -7 -17 -7 -30 0 -19 5 -23 30 -23 27 0 30 3 30 30
0 25 -4 30 -23 30 -13 0 -27 -3 -30 -7z"/>
<path d="M1985 1300 c-12 -20 6 -50 30 -50 29 0 38 13 30 40 -7 21 -49 28 -60
10z"/>
<path d="M2060 1279 c0 -27 3 -30 28 -27 21 2 28 9 30 31 3 24 0 27 -27 27
-28 0 -31 -3 -31 -31z"/>
<path d="M1620 1270 c0 -27 3 -30 30 -30 27 0 30 3 30 30 0 27 -3 30 -30 30
-27 0 -30 -3 -30 -30z"/>
<path d="M1690 1270 c0 -27 3 -30 30 -30 27 0 30 3 30 30 0 27 -3 30 -30 30
-27 0 -30 -3 -30 -30z"/>
<path d="M1770 1269 c0 -27 3 -30 28 -27 21 2 28 9 30 31 3 24 0 27 -27 27
-28 0 -31 -3 -31 -31z"/>
<path d="M1840 1270 c0 -32 2 -33 38 -24 15 4 22 14 22 30 0 20 -5 24 -30 24
-27 0 -30 -3 -30 -30z"/>
<path d="M1367 1283 c-4 -3 -7 -17 -7 -30 0 -21 4 -23 50 -23 49 0 50 1 50 30
0 29 -2 30 -43 30 -24 0 -47 -3 -50 -7z"/>
<path d="M1470 1260 c0 -27 3 -30 29 -30 34 0 45 12 36 40 -4 14 -15 20 -36
20 -26 0 -29 -3 -29 -30z"/>
<path d="M1548 1260 c2 -16 10 -30 17 -30 29 0 45 13 45 36 0 21 -5 24 -33 24
-32 0 -33 -2 -29 -30z"/>
<path d="M1177 1221 c-14 -17 -41 -37 -61 -45 -69 -29 -96 -118 -56 -183 28
-47 67 -63 147 -61 l68 1 -75 6 c-81 7 -109 19 -134 62 -37 63 -5 144 69 170
18 7 38 23 44 35 11 25 49 39 81 31 11 -3 20 -1 20 4 0 5 -18 9 -39 9 -31 0
-44 -6 -64 -29z"/>
<path d="M2243 1243 c-7 -2 -13 -17 -13 -32 0 -25 3 -27 31 -23 26 4 30 8 27
31 -3 25 -20 35 -45 24z"/>
<path d="M2300 1220 c0 -30 1 -30 53 -30 62 0 66 2 59 35 -4 23 -9 25 -58 25
-53 0 -54 0 -54 -30z"/>
<path d="M1937 1233 c-4 -3 -7 -17 -7 -30 0 -19 5 -23 30 -23 27 0 30 3 30 30
0 25 -4 30 -23 30 -13 0 -27 -3 -30 -7z"/>
<path d="M2010 1211 c0 -28 3 -31 31 -31 27 0 30 3 27 28 -2 21 -9 28 -30 30
-25 3 -28 0 -28 -27z"/>
<path d="M2080 1209 c0 -27 3 -30 28 -27 21 2 28 9 30 31 3 24 0 27 -27 27
-28 0 -31 -3 -31 -31z"/>
<path d="M2150 1216 c0 -30 8 -36 41 -29 21 4 25 9 21 29 -3 19 -11 24 -33 24
-24 0 -29 -4 -29 -24z"/>
<path d="M1640 1200 c0 -27 3 -30 30 -30 27 0 30 3 30 30 0 27 -3 30 -30 30
-27 0 -30 -3 -30 -30z"/>
<path d="M1715 1220 c-12 -20 6 -50 31 -50 20 0 24 5 24 30 0 25 -4 30 -24 30
-14 0 -28 -5 -31 -10z"/>
<path d="M1790 1199 c0 -27 3 -30 28 -27 21 2 28 9 30 31 3 24 0 27 -27 27
-28 0 -31 -3 -31 -31z"/>
<path d="M1860 1206 c0 -26 14 -36 43 -28 10 3 17 14 17 28 0 20 -5 24 -30 24
-25 0 -30 -4 -30 -24z"/>
<path d="M1365 1210 c-3 -6 -3 -19 0 -30 5 -17 15 -20 61 -20 53 0 54 0 54 30
0 30 -1 30 -54 30 -30 0 -58 -5 -61 -10z"/>
<path d="M1492 1193 c2 -21 9 -29 27 -31 30 -5 45 10 36 37 -5 15 -15 21 -36
21 -27 0 -30 -3 -27 -27z"/>
<path d="M1570 1189 c0 -27 3 -30 28 -27 21 2 28 9 30 31 3 24 0 27 -27 27
-28 0 -31 -3 -31 -31z"/>
<path d="M2290 1175 c0 -22 27 -55 46 -55 23 0 37 -21 28 -44 -3 -7 1 -20 8
-27 8 -8 20 -34 28 -59 l14 -45 4 33 c2 22 -7 54 -28 97 -17 36 -29 69 -25 75
8 13 35 13 35 0 0 -5 5 -10 10 -10 6 0 10 9 10 20 0 18 -7 20 -65 20 -36 0
-65 -2 -65 -5z"/>
<path d="M1983 1163 c-7 -2 -13 -16 -13 -29 0 -20 5 -24 30 -24 27 0 30 3 30
30 0 30 -14 37 -47 23z"/>
<path d="M2045 1160 c-14 -23 6 -50 36 -50 27 0 30 3 27 28 -2 21 -9 28 -30
30 -14 2 -29 -2 -33 -8z"/>
<path d="M2120 1137 c0 -23 12 -49 41 -87 23 -30 50 -74 59 -96 15 -35 40 -66
40 -51 0 14 -36 86 -72 145 -22 37 -41 79 -42 94 -1 40 -26 35 -26 -5z"/>
<path d="M2196 1158 c5 -7 29 -40 55 -73 25 -33 52 -77 58 -97 7 -20 19 -42
27 -49 24 -20 -31 98 -76 162 -22 31 -37 59 -33 63 3 3 -4 6 -16 6 -15 0 -20
-4 -15 -12z"/>
<path d="M1687 1154 c-4 -4 -7 -18 -7 -31 0 -19 5 -23 31 -23 27 0 30 3 27 28
-3 26 -34 43 -51 26z"/>
<path d="M1750 1130 c0 -27 3 -30 30 -30 27 0 30 3 30 30 0 27 -3 30 -30 30
-27 0 -30 -3 -30 -30z"/>
<path d="M1830 1130 c0 -28 3 -31 28 -28 21 2 27 8 27 28 0 20 -6 26 -27 28
-25 3 -28 0 -28 -28z"/>
<path d="M1900 1135 c0 -21 5 -25 30 -25 25 0 30 4 30 25 0 21 -5 25 -30 25
-25 0 -30 -4 -30 -25z"/>
<path d="M1388 1143 c-11 -3 -18 -14 -18 -30 0 -25 1 -26 54 -19 30 3 57 2 60
-3 3 -5 -4 -30 -15 -56 -11 -26 -19 -48 -17 -50 3 -4 19 25 59 107 5 10 9 27
9 38 0 18 -6 20 -57 19 -32 -1 -66 -3 -75 -6z"/>
<path d="M1530 1137 c0 -16 31 -47 47 -47 12 0 22 29 16 48 -6 17 -63 16 -63
-1z"/>
<path d="M1610 1125 c0 -21 5 -25 30 -25 25 0 30 4 30 25 0 21 -5 25 -30 25
-25 0 -30 -4 -30 -25z"/>
<path d="M1820 1090 l-135 -5 -3 -34 -4 -34 178 6 c97 4 179 8 181 10 2 2 0
18 -3 35 -6 29 -9 32 -43 30 -20 -1 -97 -5 -171 -8z"/>
<path d="M2050 1065 c0 -31 3 -35 26 -35 22 0 25 3 20 23 -3 12 -6 28 -6 35 0
6 -9 12 -20 12 -16 0 -20 -7 -20 -35z"/>
<path d="M1393 1072 c-17 -3 -23 -10 -23 -28 0 -14 -7 -35 -14 -47 -19 -28
-31 -103 -19 -110 5 -3 15 21 22 54 6 32 16 59 21 59 11 0 43 58 38 68 -2 4
-13 6 -25 4z"/>
<path d="M1560 1068 c0 -7 -3 -23 -6 -35 -5 -17 -2 -23 10 -23 9 0 16 -4 16
-10 0 -9 -12 -13 -27 -7 -8 3 -41 -91 -42 -120 -1 -13 4 -23 9 -23 6 0 10 6
10 13 0 6 14 41 30 75 24 51 29 72 24 103 -6 36 -24 56 -24 27z"/>
<path d="M1590 1054 c0 -23 2 -25 16 -13 14 11 18 10 33 -9 20 -27 31 -20 31
20 0 26 -3 28 -40 28 -36 0 -40 -2 -40 -26z"/>
<path d="M1426 915 c-3 -9 -6 -22 -5 -28 0 -7 5 -1 10 12 5 13 8 26 5 28 -2 2
-6 -3 -10 -12z"/>
<path d="M2126 843 c9 -21 20 -48 25 -60 8 -22 39 -23 39 -1 0 42 -39 115 -40
76 0 -7 -5 -5 -11 5 -19 32 -29 17 -13 -20z"/>
<path d="M1610 788 c-28 -39 -41 -86 -20 -73 6 3 10 12 10 19 0 8 6 19 14 25
14 12 39 71 31 71 -3 0 -18 -19 -35 -42z"/>
<path d="M2200 761 c0 -5 7 -14 15 -21 20 -17 19 -40 -2 -55 -15 -11 -15 -15
-4 -29 9 -11 10 -16 2 -16 -6 0 -11 5 -11 10 0 6 -8 10 -17 10 -9 0 -25 8 -36
18 -15 12 -21 14 -24 5 -3 -7 -16 -13 -29 -13 -13 0 -24 -4 -24 -10 0 -5 10
-10 21 -10 57 0 179 -96 223 -175 60 -108 59 -105 38 -105 -10 0 -26 6 -37 14
-43 29 -117 25 -199 -9 -53 -22 -39 -29 20 -9 82 28 135 24 188 -13 26 -18 51
-33 56 -33 5 0 14 -8 19 -18 5 -10 21 -24 35 -32 37 -19 44 -55 15 -78 -15
-13 -20 -25 -16 -37 6 -13 10 -15 21 -6 24 20 29 -6 6 -29 -26 -26 -30 -25
-30 3 0 13 -3 27 -7 30 -9 9 -65 -51 -58 -63 9 -15 -36 -24 -47 -9 -7 11 -8 9
-6 -6 2 -11 11 -19 20 -19 11 1 19 -9 23 -27 l6 -28 395 -1 394 0 0 110 0 110
-107 1 c-146 1 -154 4 -176 64 -24 64 -38 79 -90 94 -23 7 -58 23 -78 36 -52
33 -58 33 -119 -7 -30 -19 -65 -38 -77 -42 -13 -3 -33 -9 -45 -12 -21 -6 -21
-5 -9 10 13 16 10 22 -32 61 -26 23 -47 48 -47 54 0 6 -20 31 -45 56 -25 25
-43 45 -41 45 3 0 17 -5 31 -10 24 -9 26 -8 21 6 -5 14 -4 15 9 4 26 -21 28
-3 3 21 -12 13 -27 33 -33 45 -10 23 -48 73 -77 105 -19 20 -38 25 -38 10z
m234 -417 c9 -22 -3 -32 -14 -14 -12 19 -12 30 -1 30 5 0 12 -7 15 -16z m61
-182 c-6 -16 -7 -16 -17 1 -5 10 -7 26 -3 35 6 16 7 16 17 -1 5 -10 7 -26 3
-35z m14 -33 c-11 -6 -9 -15 6 -46 11 -21 21 -41 23 -45 2 -5 -1 -8 -6 -8 -6
0 -14 9 -17 21 -4 12 -12 18 -21 15 -22 -9 -29 38 -8 62 10 12 22 18 27 15 5
-3 3 -9 -4 -14z m-93 -37 c1 -7 0 -8 -2 -3 -3 6 -12 7 -20 4 -8 -3 -14 0 -14
7 0 15 33 9 36 -8z m-20 -59 c-10 -10 -19 5 -10 18 6 11 8 11 12 0 2 -7 1 -15
-2 -18z"/>
<path d="M1873 663 c26 -2 67 -2 90 0 23 2 2 3 -48 3 -49 0 -68 -1 -42 -3z"/>
<path d="M1585 590 c-49 -50 -64 -59 -89 -57 -24 1 -31 -2 -30 -15 1 -10 -2
-18 -6 -18 -4 0 -10 -18 -14 -41 -5 -32 -19 -53 -67 -101 -40 -40 -67 -60 -83
-60 -25 0 -66 24 -124 74 -18 15 -39 28 -48 28 -21 0 -128 -55 -144 -75 -7 -9
-31 -25 -52 -36 -21 -11 -43 -31 -49 -45 l-9 -26 -150 4 c-83 2 -149 1 -148
-2 2 -3 27 -53 57 -113 l54 -107 556 1 557 0 32 107 c18 59 33 109 32 112 0 3
-106 6 -236 7 -153 2 -241 7 -250 14 -10 8 -10 16 -2 35 6 13 15 24 20 24 4 0
8 5 8 11 0 7 16 34 35 60 19 27 35 54 35 59 0 5 41 55 90 109 73 80 97 101
123 104 l32 4 -35 1 c-31 2 -43 -6 -95 -58z m-630 -360 c-28 -12 -57 -12 -50
0 3 6 21 10 38 9 27 0 29 -2 12 -9z"/>
<path d="M1506 604 c-11 -28 -6 -39 9 -20 8 11 15 23 15 28 0 14 -18 9 -24 -8z"/>
<path d="M145 496 c-27 -12 -65 -39 -83 -60 -17 -20 -32 -32 -32 -26 0 19 21
54 44 72 25 20 16 34 -12 19 -12 -6 -30 -11 -41 -11 -20 0 -21 -5 -20 -77 1
-43 3 -70 6 -61 2 9 15 24 29 32 13 9 24 23 24 30 0 17 45 45 122 75 44 18 61
20 76 12 31 -16 51 -13 22 4 -35 20 -77 17 -135 -9z"/>
<path d="M311 487 c2 -2 18 -11 34 -21 l30 -17 -24 20 c-13 12 -28 21 -34 21
-6 0 -8 -1 -6 -3z"/>
<path d="M350 379 c0 -5 4 -8 8 -5 5 3 23 -9 40 -27 51 -52 83 -168 91 -324 1
-22 5 -23 86 -23 47 0 85 3 85 8 0 16 -18 34 -28 28 -6 -4 -8 2 -5 14 3 12 -1
22 -11 26 -9 3 -16 12 -16 20 0 7 -10 20 -22 28 -12 9 -19 16 -14 16 7 0 -30
67 -43 80 -13 11 -51 70 -51 77 0 5 -9 16 -20 26 -11 9 -20 24 -20 32 0 8 -9
15 -19 15 -11 0 -23 5 -26 10 -8 13 -35 13 -35 -1z"/>
<path d="M2005 360 c-3 -5 -1 -10 4 -10 6 0 11 5 11 10 0 6 -2 10 -4 10 -3 0
-8 -4 -11 -10z"/>
<path d="M1935 350 c-7 -12 2 -12 30 0 19 8 19 9 -2 9 -12 1 -25 -3 -28 -9z"/>
<path d="M2250 340 c0 -5 5 -10 10 -10 6 0 10 5 10 10 0 6 -4 10 -10 10 -5 0
-10 -4 -10 -10z"/>
<path d="M2182 331 c-8 -4 -13 -11 -13 -15 3 -18 -1 -19 -9 -1 -6 16 -9 17
-13 5 -3 -8 -8 -24 -13 -35 -4 -11 -6 -29 -5 -39 2 -16 -2 -14 -23 9 -14 15
-26 23 -26 17 0 -6 -3 -19 -7 -29 -6 -15 -4 -16 9 -5 13 10 16 9 21 -9 5 -19
8 -20 21 -9 9 7 16 23 16 36 0 17 6 24 19 24 11 0 27 10 35 22 25 35 18 49
-12 29z"/>
<path d="M2217 323 c-4 -3 -7 -18 -7 -31 0 -31 12 -21 16 13 3 26 1 29 -9 18z"/>
<path d="M2280 313 c0 -10 4 -14 8 -8 4 6 11 13 16 18 5 4 2 7 -7 7 -10 0 -17
-8 -17 -17z"/>
<path d="M1930 307 c0 -15 27 -43 34 -36 3 2 -4 15 -15 28 -13 16 -19 18 -19
8z"/>
<path d="M2330 305 c0 -8 2 -15 4 -15 2 0 6 7 10 15 3 8 1 15 -4 15 -6 0 -10
-7 -10 -15z"/>
<path d="M2180 270 c-9 -6 -10 -10 -3 -10 6 0 15 5 18 10 8 12 4 12 -15 0z"/>
<path d="M2295 269 c-4 -6 -5 -12 -2 -15 2 -3 7 2 10 11 7 17 1 20 -8 4z"/>
<path d="M2327 273 c-4 -3 -7 -13 -7 -22 1 -13 3 -13 11 2 11 19 8 33 -4 20z"/>
<path d="M2400 240 c0 -5 7 -10 15 -10 8 0 15 5 15 10 0 6 -7 10 -15 10 -8 0
-15 -4 -15 -10z"/>
<path d="M1956 225 c-11 -8 -15 -15 -10 -15 6 0 19 7 30 15 10 8 15 14 9 14
-5 0 -19 -6 -29 -14z"/>
<path d="M2277 216 c-21 -32 -9 -42 14 -12 21 27 24 36 10 36 -5 0 -16 -11
-24 -24z"/>
<path d="M0 135 c0 -56 4 -94 9 -91 5 4 11 0 14 -6 2 -7 8 -9 13 -5 5 5 1 13
-9 18 -22 13 -24 74 -1 83 23 9 16 90 -8 94 -16 3 -18 -7 -18 -93z"/>
<path d="M1882 213 c-20 -38 -73 -205 -67 -211 14 -14 41 18 58 67 9 29 28 67
42 85 16 21 22 39 18 54 -7 26 -38 29 -51 5z"/>
<path d="M2340 216 c0 -7 -9 -25 -20 -39 -23 -29 -27 -45 -7 -29 10 9 19 7 35
-4 21 -14 22 -14 13 8 -5 13 -7 36 -4 51 3 16 1 27 -6 27 -6 0 -11 -6 -11 -14z"/>
<path d="M2018 200 c-10 -9 -18 -22 -18 -28 0 -7 -7 -9 -17 -5 -11 4 -14 3 -9
-5 4 -7 1 -15 -7 -18 -9 -3 -13 -13 -9 -27 3 -12 1 -19 -3 -14 -10 9 -45 -21
-45 -39 0 -7 -4 -14 -10 -16 -5 -2 -7 -13 -4 -25 6 -23 9 -23 153 -23 121 0
151 3 171 17 33 22 39 33 32 52 -5 13 -7 12 -12 -6 -3 -16 -9 -20 -19 -14 -11
7 -10 16 6 52 12 26 17 53 13 64 -4 11 -9 15 -13 8 -4 -6 -4 -18 -1 -26 3 -8
0 -18 -7 -23 -7 -4 -15 -2 -17 5 -3 9 -7 9 -18 0 -17 -14 -19 2 -2 19 9 9 8
12 -4 12 -9 0 -18 -10 -22 -22 -5 -19 -8 -21 -16 -8 -8 13 -10 12 -11 -5 l0
-20 -9 20 c-4 11 -4 24 0 28 10 11 1 47 -11 47 -5 0 -9 -6 -9 -14 0 -8 -7 -16
-15 -20 -9 -3 -15 1 -15 11 0 12 -3 13 -14 4 -12 -10 -15 -8 -18 12 -3 22 -4
23 -20 7z"/>
<path d="M2150 194 c-15 -37 -12 -42 10 -15 22 26 26 41 10 41 -6 0 -15 -12
-20 -26z"/>
<path d="M2384 206 c-15 -12 -16 -17 -7 -27 7 -7 16 -9 20 -5 4 4 1 11 -7 16
-8 6 -10 10 -4 10 5 0 15 -5 21 -11 9 -9 10 -7 6 10 -6 25 -4 25 -29 7z"/>
<path d="M2217 203 c-4 -3 -7 -11 -7 -17 0 -6 5 -5 12 2 6 6 9 14 7 17 -3 3
-9 2 -12 -2z"/>
<path d="M2260 119 c0 -5 5 -7 10 -4 6 3 10 8 10 11 0 2 -4 4 -10 4 -5 0 -10
-5 -10 -11z"/>
<path d="M435 100 c3 -5 8 -10 11 -10 2 0 4 5 4 10 0 6 -5 10 -11 10 -5 0 -7
-4 -4 -10z"/>
<path d="M2286 44 c-4 -9 -4 -19 -1 -22 3 -3 5 1 6 9 0 8 4 4 9 -9 11 -25 50
-31 50 -6 0 11 -6 14 -21 9 -13 -5 -19 -3 -15 3 3 5 0 15 -8 21 -11 9 -15 8
-20 -5z"/>
</g>
</svg>
