<?xml version="1.0" standalone="no"?>
<!DOCTYPE svg PUBLIC "-//W3C//DTD SVG 20010904//EN"
 "http://www.w3.org/TR/2001/REC-SVG-20010904/DTD/svg10.dtd">
<svg version="1.0" xmlns="http://www.w3.org/2000/svg"
 width="315.000000pt" height="323.000000pt" viewBox="0 0 315.000000 323.000000"
 preserveAspectRatio="xMidYMid meet">

<g transform="translate(0.000000,323.000000) scale(0.100000,-0.100000)"
fill="#000000" stroke="none">
<path d="M0 2846 c1 -319 4 -385 15 -390 21 -8 65 -82 65 -109 0 -13 5 -38 11
-55 8 -24 7 -37 -6 -61 -13 -26 -22 -31 -50 -31 l-35 0 0 -784 c0 -775 0 -784
20 -789 28 -7 28 -62 0 -77 -19 -10 -20 -21 -20 -280 l0 -270 890 0 c686 0
890 3 890 12 0 9 3 9 12 0 9 -9 85 -12 283 -11 249 0 268 1 247 16 -21 15 -21
16 -5 29 24 18 58 17 73 -1 7 -8 16 -12 21 -9 13 7 51 -15 44 -27 -4 -5 126
-9 344 -9 l351 0 0 1615 0 1615 -787 0 c-432 0 -784 -2 -782 -4 2 -2 200 -76
439 -164 566 -209 510 -184 510 -232 0 -22 -4 -40 -10 -40 -5 0 -227 77 -492
171 -266 94 -548 193 -628 220 l-144 49 -204 0 c-133 0 -201 -3 -197 -10 3 -5
-1 -10 -9 -10 -9 0 -16 5 -16 10 0 7 -145 10 -415 10 l-416 0 1 -384z m963
338 c50 -17 66 -36 20 -24 -53 14 -73 22 -73 31 0 12 -2 12 53 -7z m107 -47
c0 -4 -9 -3 -20 3 -11 6 -20 15 -20 20 0 6 9 5 20 -2 11 -7 20 -16 20 -21z
m60 -7 c24 -15 7 -19 -25 -5 -23 10 -25 14 -10 14 11 0 27 -3 35 -9z m77 -36
c-7 -7 -57 15 -57 25 0 5 14 3 31 -6 16 -8 28 -17 26 -19z m118 -114 c-3 -5
-11 -10 -16 -10 -6 0 -7 5 -4 10 3 6 11 10 16 10 6 0 7 -4 4 -10z m210 -141
c11 -17 0 -20 -21 -4 -17 13 -17 14 -2 15 9 0 20 -5 23 -11z m236 -21 c8 -15
8 -18 0 -14 -6 4 -16 16 -22 28 -8 15 -8 18 0 14 6 -4 16 -16 22 -28z m-176 2
c3 -6 -4 -10 -17 -10 -18 0 -20 2 -8 10 19 12 18 12 25 0z m-80 -20 c3 -5 -8
-14 -25 -22 -34 -15 -38 -24 -12 -26 30 -1 72 20 73 37 1 13 2 13 6 -1 3 -12
14 -18 34 -18 18 0 28 -4 24 -10 -3 -5 -2 -10 4 -10 5 0 21 -20 35 -45 26 -47
23 -48 -31 -8 -21 15 -31 18 -27 9 4 -10 0 -14 -14 -13 -12 0 -18 5 -16 9 3 4
-5 8 -18 8 -18 0 -20 -2 -8 -10 13 -8 13 -10 -2 -10 -9 0 -19 4 -23 10 -3 5
-13 6 -22 3 -12 -5 -14 -3 -8 7 6 9 4 12 -6 8 -19 -7 -55 17 -40 27 6 3 11 19
11 35 0 15 6 30 13 33 15 5 46 -3 52 -13z m-267 -72 c7 -7 12 -43 12 -90 0
-75 -1 -78 -24 -78 -21 0 -24 5 -29 68 -10 103 -9 112 11 112 10 0 23 -5 30
-12z m92 -32 c0 -7 8 -16 18 -18 13 -4 17 -17 19 -64 1 -32 -1 -50 -3 -39 -24
97 -46 108 -41 19 3 -40 0 -54 -10 -54 -8 0 -13 13 -13 39 0 21 -3 59 -6 85
-6 42 -5 46 15 46 11 0 21 -6 21 -14z m284 -75 c3 -4 -6 -6 -19 -3 -14 2 -25
6 -25 8 0 8 39 4 44 -5z m-1008 -28 c50 -23 54 -28 39 -39 -15 -11 -15 -15 6
-52 19 -33 21 -44 12 -63 -11 -23 -12 -23 -12 8 -1 19 -8 37 -19 45 -10 7 -22
22 -27 33 -7 18 -9 18 -12 3 -8 -34 -33 -18 -51 33 -24 68 -18 71 64 32z m684
17 c0 -5 -2 -10 -4 -10 -3 0 -8 5 -11 10 -3 6 -1 10 4 10 6 0 11 -4 11 -10z
m318 -19 c53 -16 62 -28 62 -88 0 -50 -1 -53 -19 -43 -13 7 -20 7 -23 -1 -2
-7 -12 -7 -31 0 -16 6 -39 11 -52 11 -13 0 -30 7 -39 15 -8 8 -19 15 -25 15
-5 0 -10 9 -10 20 -1 11 -1 29 -2 40 0 11 -4 22 -10 25 -39 25 71 28 149 6z
m128 -6 c4 -8 10 -13 14 -10 9 5 25 -93 17 -101 -2 -3 -8 11 -11 30 -11 58
-28 55 -24 -3 3 -38 1 -51 -9 -51 -9 0 -13 16 -13 53 0 28 -3 62 -6 75 -5 16
-2 22 10 22 9 0 19 -7 22 -15z m122 -90 c3 -62 1 -68 -12 -55 -8 8 -18 41 -21
73 -7 54 -6 59 11 55 16 -3 19 -14 22 -73z m-468 44 c0 -11 -4 -18 -10 -14 -5
3 -7 12 -3 20 7 21 13 19 13 -6z m400 -89 c0 -5 -5 -10 -11 -10 -5 0 -7 5 -4
10 3 6 8 10 11 10 2 0 4 -4 4 -10z m350 -70 c13 -8 13 -11 0 -24 -13 -13 -20
-12 -52 1 -21 8 -38 19 -38 24 0 12 71 11 90 -1z m-562 -93 c3 -39 3 -40 -22
-31 -17 6 -21 31 -10 59 11 27 29 11 32 -28z m657 -87 c3 -5 1 -10 -4 -10 -6
0 -11 5 -11 10 0 6 2 10 4 10 3 0 8 -4 11 -10z m-2095 -140 c0 -5 -2 -10 -4
-10 -3 0 -8 5 -11 10 -3 6 -1 10 4 10 6 0 11 -4 11 -10z m1135 -20 c3 -5 1
-10 -4 -10 -6 0 -11 5 -11 10 0 6 2 10 4 10 3 0 8 -4 11 -10z m1115 -29 c0 -4
-5 -22 -11 -40 -9 -25 -8 -36 5 -56 9 -14 23 -25 31 -25 16 0 21 -25 6 -34
-19 -12 -43 8 -65 53 -20 42 -21 50 -9 79 12 28 43 46 43 23z m-1370 -16 c0
-8 -7 -15 -15 -15 -8 0 -15 7 -15 15 0 8 7 15 15 15 8 0 15 -7 15 -15z m1004
-31 c3 -8 2 -12 -4 -9 -6 3 -10 10 -10 16 0 14 7 11 14 -7z m-1004 -10 c0 -8
-4 -12 -10 -9 -5 3 -10 10 -10 16 0 5 5 9 10 9 6 0 10 -7 10 -16z m-516 -57
c13 -20 5 -30 -18 -21 -9 3 -16 15 -16 26 0 22 18 20 34 -5z m74 14 c19 -11
11 -45 -11 -49 -19 -4 -32 20 -23 43 6 17 15 19 34 6z m96 -29 c3 -5 -8 -9
-24 -10 -16 0 -32 4 -35 9 -4 5 7 9 24 9 16 0 32 -4 35 -8z m196 -13 c0 -5
-11 -9 -25 -9 -14 0 -25 6 -25 14 0 9 8 12 25 8 14 -2 25 -8 25 -13z m-100 7
c0 -8 -51 -13 -56 -5 -3 5 9 9 25 9 17 0 31 -2 31 -4z m550 -6 c0 -5 -2 -10
-4 -10 -3 0 -8 5 -11 10 -3 6 -1 10 4 10 6 0 11 -4 11 -10z m137 -12 c-3 -8
-6 -5 -6 6 -1 11 2 17 5 13 3 -3 4 -12 1 -19z m103 -4 c0 -2 -7 -4 -15 -4 -8
0 -15 4 -15 10 0 5 7 7 15 4 8 -4 15 -8 15 -10z m60 -4 c0 -5 -2 -10 -4 -10
-3 0 -8 5 -11 10 -3 6 -1 10 4 10 6 0 11 -4 11 -10z m60 0 c0 -5 -4 -10 -10
-10 -5 0 -10 5 -10 10 0 6 5 10 10 10 6 0 10 -4 10 -10z m130 -10 c0 -5 -4
-10 -10 -10 -5 0 -10 5 -10 10 0 6 5 10 10 10 6 0 10 -4 10 -10z m80 -12 c0
-6 -7 -7 -16 -4 -9 3 -18 6 -20 6 -3 0 -3 4 1 10 7 11 35 2 35 -12z m-1485 -4
c100 -5 115 -8 115 -24 0 -8 -32 -11 -102 -9 -127 4 -138 6 -138 31 0 15 4 18
18 13 9 -4 58 -9 107 -11z m1535 6 c0 -5 -7 -10 -15 -10 -8 0 -15 5 -15 10 0
6 7 10 15 10 8 0 15 -4 15 -10z m50 0 c0 -5 -4 -10 -10 -10 -5 0 -10 5 -10 10
0 6 5 10 10 10 6 0 10 -4 10 -10z m53 -4 c4 -10 1 -13 -9 -9 -15 6 -19 23 -5
23 5 0 11 -7 14 -14z m51 -1 c3 -8 1 -15 -4 -15 -6 0 -10 7 -10 15 0 8 2 15 4
15 2 0 6 -7 10 -15z m-1524 -20 c0 -8 -4 -15 -10 -15 -5 0 -10 7 -10 15 0 8 5
15 10 15 6 0 10 -7 10 -15z m1741 -16 c-3 -8 -5 -32 -5 -54 -1 -32 3 -41 24
-52 32 -16 32 -38 0 -38 -19 0 -30 9 -45 40 -11 22 -24 43 -30 47 -6 5 -5 8 3
8 6 0 12 7 12 16 0 24 20 56 33 51 7 -3 10 -11 8 -18z m-2211 -4 c14 -16 6
-35 -16 -35 -8 0 -14 10 -14 25 0 28 12 32 30 10z m2373 -37 c-6 -48 -4 -53
22 -74 25 -20 27 -24 12 -30 -47 -18 -87 80 -56 139 18 33 28 17 22 -35z
m-2095 -14 c31 -9 -3 -22 -58 -23 -42 0 -60 4 -60 13 0 7 2 15 5 18 6 6 89 0
113 -8z m140 -11 c2 -8 -6 -13 -22 -13 -25 0 -33 10 -19 24 10 10 36 3 41 -11z
m-68 -3 c0 -5 -11 -10 -25 -10 -14 0 -25 5 -25 10 0 6 11 10 25 10 14 0 25 -4
25 -10z m-320 -30 c0 -15 -7 -20 -24 -20 -27 0 -41 14 -31 30 3 6 17 10 31 10
17 0 24 -5 24 -20z m830 -5 c0 -16 -64 -22 -74 -6 -9 14 5 21 41 21 23 0 33
-5 33 -15z m170 -2 c0 -9 -18 -13 -65 -13 -51 0 -65 3 -65 15 0 11 14 14 65
13 46 -1 65 -6 65 -15z m176 -10 c6 -10 11 -22 10 -28 -1 -6 120 -12 334 -15
311 -5 296 -6 -212 -8 -404 -1 -549 1 -554 10 -5 8 43 10 194 6 191 -6 200 -5
205 13 5 17 -1 19 -54 19 -33 0 -59 4 -59 10 0 6 28 10 63 10 48 0 65 -4 73
-17z m111 0 c0 -8 -6 -12 -14 -8 -8 3 -26 5 -39 5 -13 0 -24 4 -24 8 0 5 17 9
38 9 26 0 39 -5 39 -14z m33 2 c0 -8 -4 -15 -9 -15 -13 0 -22 16 -14 24 11 11
23 6 23 -9z m90 -5 c0 -4 -11 -7 -25 -7 -14 0 -25 5 -25 12 0 8 9 10 25 7 14
-2 25 -8 25 -12z m-1230 -5 c0 -8 -7 -15 -15 -15 -8 0 -15 7 -15 15 0 8 7 15
15 15 8 0 15 -7 15 -15z m108 3 c-3 -7 -11 -13 -18 -13 -7 0 -15 6 -17 13 -3
7 4 12 17 12 13 0 20 -5 18 -12z m100 -5 c-2 -10 -10 -18 -18 -18 -8 0 -16 8
-18 18 -2 12 3 17 18 17 15 0 20 -5 18 -17z m98 6 c10 -17 -13 -36 -27 -22
-12 12 -4 33 11 33 5 0 12 -5 16 -11z m91 -8 c7 -10 9 -22 6 -25 -9 -9 -44 25
-37 35 8 14 18 11 31 -10z m893 10 c0 -5 -11 -8 -25 -8 -14 0 -25 3 -25 8 0 5
11 9 25 9 14 0 25 -4 25 -9z m80 -1 c0 -5 -9 -10 -19 -10 -11 0 -23 5 -26 10
-4 6 5 10 19 10 14 0 26 -4 26 -10z m50 0 c0 -5 -9 -10 -20 -10 -11 0 -20 5
-20 10 0 6 9 10 20 10 11 0 20 -4 20 -10z m130 -2 c0 -5 -20 -8 -45 -8 -25 0
-45 4 -45 8 0 5 20 9 45 8 25 -1 45 -4 45 -8z m103 -5 c-13 -2 -35 -2 -50 0
-16 2 -5 4 22 4 28 0 40 -2 28 -4z m-1822 -49 c11 -14 11 -18 -4 -29 -21 -15
-56 -8 -64 12 -12 31 45 44 68 17z m257 -7 c2 -12 -3 -17 -17 -17 -15 0 -21 6
-21 21 0 25 33 22 38 -4z m172 8 c0 -9 -7 -18 -16 -22 -18 -7 -39 11 -30 26
11 17 46 13 46 -4z m-100 -3 c0 -13 -12 -22 -22 -16 -10 6 -1 24 13 24 5 0 9
-4 9 -8z m170 -8 c0 -9 -7 -14 -17 -12 -25 5 -28 28 -4 28 12 0 21 -6 21 -16z
m1416 -57 c2 -22 -1 -27 -19 -27 -12 0 -28 -4 -36 -9 -12 -8 -12 -12 2 -25 8
-9 25 -16 36 -16 14 0 21 -6 21 -20 0 -16 -7 -20 -30 -20 -22 0 -30 -5 -30
-18 0 -13 -7 -18 -22 -17 -13 1 -26 -3 -30 -9 -9 -13 -30 13 -22 26 3 4 -29 8
-70 8 -69 0 -76 -2 -76 -20 0 -11 7 -20 15 -20 20 0 19 -16 0 -24 -9 -3 -15
-11 -14 -18 4 -33 -2 -48 -21 -48 -11 0 -20 5 -20 10 0 11 -78 13 -157 4 -35
-5 -53 -11 -53 -20 0 -8 -7 -14 -15 -14 -8 0 -15 7 -15 15 0 12 -12 13 -65 8
-46 -4 -65 -2 -65 6 0 6 6 11 13 12 6 0 33 1 59 2 25 1 49 5 53 9 3 3 3 22 0
42 -7 32 -10 36 -39 36 -22 0 -33 -5 -33 -15 0 -14 10 -19 30 -16 4 0 7 -6 7
-14 0 -8 -9 -15 -19 -15 -13 0 -21 9 -26 30 -6 28 -10 30 -53 30 l-47 0 3 -69
c3 -62 2 -69 -17 -74 -18 -4 -21 1 -27 54 -4 32 -11 59 -16 59 -6 0 -7 8 -3
18 4 9 8 26 10 37 1 13 10 21 27 23 22 3 26 0 21 -17 -5 -19 -1 -21 51 -21 50
0 56 2 56 21 0 18 -4 20 -30 14 -29 -6 -30 -5 -30 30 l0 37 -234 -7 -234 -7
-4 36 c-2 20 -3 38 -1 40 2 2 265 2 585 2 l581 -2 3 -27z m-1481 -7 c0 -8 -10
-16 -22 -18 -22 -3 -32 16 -16 32 12 11 38 2 38 -14z m-444 0 c23 -13 25 -48
3 -57 -9 -3 -24 3 -37 15 -17 17 -18 23 -7 36 15 19 16 19 41 6z m274 -10 c0
-8 -8 -16 -17 -18 -13 -2 -18 3 -18 18 0 15 5 20 18 18 9 -2 17 -10 17 -18z
m70 0 c-3 -5 -10 -10 -16 -10 -5 0 -9 5 -9 10 0 6 7 10 16 10 8 0 12 -4 9 -10z
m167 -2 c-9 -9 -15 -9 -24 0 -9 9 -7 12 12 12 19 0 21 -3 12 -12z m-231 -64
c10 -13 10 -17 -2 -24 -17 -11 -45 13 -35 29 10 15 21 14 37 -5z m167 -1 c-2
-10 -10 -18 -18 -18 -8 0 -16 8 -18 18 -2 12 3 17 18 17 15 0 20 -5 18 -17z
m80 0 c2 -8 -5 -13 -17 -13 -21 0 -35 13 -24 24 10 10 36 3 41 -11z m-178 -9
c0 -8 -4 -12 -10 -9 -5 3 -10 10 -10 16 0 5 5 9 10 9 6 0 10 -7 10 -16z m-312
-25 c3 -23 0 -25 -39 -24 -42 1 -56 13 -46 39 3 8 20 12 44 12 33 -2 38 -5 41
-27z m1075 -5 c4 -21 0 -26 -24 -31 -27 -5 -27 -6 -25 -74 3 -80 -9 -93 -16
-19 -5 51 -17 76 -25 53 -8 -23 -22 -13 -17 12 2 14 0 25 -6 25 -5 0 -10 -11
-10 -25 0 -34 -17 -32 -23 3 -3 15 -4 -8 -3 -50 1 -76 -6 -99 -19 -58 -3 10
-7 42 -7 70 -1 28 -5 53 -10 56 -4 3 -24 2 -44 -2 l-36 -7 7 -72 6 -73 -36 -4
c-20 -2 -38 -2 -40 1 -2 3 -6 52 -10 109 l-8 102 72 0 c64 0 71 -2 71 -20 0
-11 5 -20 10 -20 6 0 10 9 10 20 0 17 7 20 39 20 30 0 40 -4 44 -20 7 -26 27
-26 27 -1 0 18 12 24 56 30 7 0 14 -10 17 -25z m-722 -59 c4 -27 9 -73 12
-102 l6 -51 -40 -4 c-22 -2 -42 -1 -44 2 -2 3 -6 51 -10 108 l-8 103 39 -3
c38 -3 39 -3 45 -53z m67 22 c2 -11 -3 -17 -17 -17 -23 0 -35 15 -26 31 10 15
39 6 43 -14z m64 -9 c-9 -9 -15 -9 -24 0 -10 10 -10 15 2 22 20 12 38 -6 22
-22z m1398 2 c0 -5 -7 -10 -15 -10 -8 0 -15 5 -15 10 0 6 7 10 15 10 8 0 15
-4 15 -10z m-1884 -14 c8 -22 -14 -56 -37 -56 -27 0 -35 27 -14 50 21 23 43
26 51 6z m1724 4 c0 -5 -7 -10 -15 -10 -8 0 -15 5 -15 10 0 6 7 10 15 10 8 0
15 -4 15 -10z m-480 -26 c0 -8 -9 -14 -20 -14 -22 0 -28 26 -7 33 16 6 27 -1
27 -19z m-985 -24 c0 -8 -8 -16 -17 -18 -13 -2 -18 3 -18 18 0 15 5 20 18 18
9 -2 17 -10 17 -18z m1440 10 c-3 -5 -16 -10 -28 -9 -21 0 -21 1 -2 9 28 12
37 12 30 0z m88 3 c-7 -2 -21 -2 -30 0 -10 3 -4 5 12 5 17 0 24 -2 18 -5z
m-1338 -23 c-3 -5 -17 -10 -30 -10 -13 0 -27 5 -30 10 -4 6 8 10 30 10 22 0
34 -4 30 -10z m-441 -36 c8 -22 -12 -56 -31 -52 -26 5 -39 34 -24 52 17 20 47
21 55 0z m1882 -2 c7 -9 14 -31 14 -47 l0 -30 -242 -23 c-134 -13 -301 -30
-373 -39 -71 -8 -137 -15 -145 -15 -8 0 -89 -9 -180 -19 -213 -24 -197 -25
-202 16 -4 34 -3 35 37 39 22 3 123 11 225 18 l185 13 3 33 3 32 72 0 c40 0
97 2 127 6 57 6 71 7 105 5 31 -2 103 7 115 14 5 3 10 -3 10 -14 0 -12 4 -21
10 -21 5 0 7 6 4 14 -4 9 5 15 25 18 17 3 31 1 31 -4 0 -4 -4 -8 -10 -8 -5 0
-10 -4 -10 -8 0 -5 15 -6 33 -4 17 3 26 7 20 9 -24 8 -13 22 20 25 91 9 110 8
123 -10z m-1880 -84 c-3 -13 -6 -29 -6 -35 0 -23 -26 -14 -39 13 -14 32 -7 44
26 44 21 0 24 -3 19 -22z m644 -19 c0 -20 -15 -26 -25 -9 -9 15 3 43 15 35 5
-3 10 -15 10 -26z m-280 -11 c1 -13 5 -57 10 -98 4 -41 8 -76 7 -77 -1 0 -19
-4 -39 -8 -36 -7 -37 -6 -42 27 -3 18 -8 66 -11 106 l-6 72 40 0 c36 0 41 -3
41 -22z m70 2 c0 -13 -7 -20 -20 -20 -13 0 -20 7 -20 20 0 13 7 20 20 20 13 0
20 -7 20 -20z m61 -3 c-13 -13 -26 -3 -16 12 3 6 11 8 17 5 6 -4 6 -10 -1 -17z
m-223 -14 c5 -18 -28 -29 -38 -12 -5 7 -6 17 -3 22 7 12 35 5 41 -10z m-3 -83
c-5 -8 -11 -8 -17 -2 -6 6 -7 16 -3 22 5 8 11 8 17 2 6 -6 7 -16 3 -22z m385
-25 c0 -14 -4 -25 -9 -25 -12 0 -19 21 -13 38 8 21 22 13 22 -13z m-75 -5 c3
-5 1 -10 -4 -10 -6 0 -11 5 -11 10 0 6 2 10 4 10 3 0 8 -4 11 -10z m-130 -9
c7 -12 -29 -33 -39 -24 -3 3 -6 12 -6 20 0 15 36 18 45 4z m65 -1 c0 -5 -7
-10 -15 -10 -8 0 -15 5 -15 10 0 6 7 10 15 10 8 0 15 -4 15 -10z m1875 0 c3
-5 1 -10 -4 -10 -6 0 -11 5 -11 10 0 6 2 10 4 10 3 0 8 -4 11 -10z m-2107 -27
c-2 -10 -10 -18 -18 -18 -8 0 -16 8 -18 18 -2 12 3 17 18 17 15 0 20 -5 18
-17z m2062 13 c0 -3 -4 -8 -10 -11 -5 -3 -10 -1 -10 4 0 6 5 11 10 11 6 0 10
-2 10 -4z m-1600 -16 c0 -5 -9 -10 -21 -10 -11 0 -17 5 -14 10 3 6 13 10 21
10 8 0 14 -4 14 -10z m1370 -20 c0 -5 -4 -10 -10 -10 -5 0 -10 5 -10 10 0 6 5
10 10 10 6 0 10 -4 10 -10z m-40 -10 c0 -5 -4 -10 -10 -10 -5 0 -10 5 -10 10
0 6 5 10 10 10 6 0 10 -4 10 -10z m-1785 -40 c0 -8 -8 -16 -17 -18 -13 -2 -18
3 -18 18 0 15 5 20 18 18 9 -2 17 -10 17 -18z m105 10 c0 -5 -18 -10 -40 -10
-22 0 -40 5 -40 10 0 6 18 10 40 10 22 0 40 -4 40 -10z m222 -45 c0 -5 -5 -11
-11 -13 -6 -2 -11 4 -11 13 0 9 5 15 11 13 6 -2 11 -8 11 -13z m-427 -56 c0
-7 -8 -15 -17 -17 -18 -3 -25 18 -11 32 10 10 28 1 28 -15z m525 -86 c0 -32
-15 -45 -43 -37 -28 6 -31 12 -21 38 9 23 64 22 64 -1z m-132 -26 c6 -28 -16
-49 -39 -36 -19 10 -25 39 -12 53 13 13 48 1 51 -17z m-238 -45 c5 -50 4 -53
-20 -58 -14 -3 -42 -9 -63 -14 -20 -4 -39 -5 -41 -1 -3 4 -8 30 -12 58 l-6 52
38 6 c22 3 46 8 54 10 37 8 45 0 50 -53z m90 18 c0 -5 -9 -10 -20 -10 -11 0
-20 5 -20 10 0 6 9 10 20 10 11 0 20 -4 20 -10z m-280 -40 c11 -21 7 -26 -35
-32 -15 -2 -21 3 -23 25 -3 23 0 27 22 27 15 0 30 -8 36 -20z m-148 -25 c-4
-37 -4 -37 -44 -38 -27 -2 -34 2 -36 21 -6 38 3 47 44 47 37 -1 39 -2 36 -30z
m1679 -179 c20 -8 46 -12 57 -9 13 3 22 1 22 -5 0 -6 -15 -14 -34 -18 -27 -5
-46 0 -85 21 -28 16 -48 32 -45 36 5 8 16 5 85 -25z m149 4 c0 -5 -4 -10 -10
-10 -5 0 -10 5 -10 10 0 6 5 10 10 10 6 0 10 -4 10 -10z m138 -60 c28 -13 52
-29 52 -36 0 -8 -4 -14 -10 -14 -17 0 -114 58 -119 71 -2 7 2 10 10 6 8 -3 38
-15 67 -27z m677 10 c3 -5 2 -10 -4 -10 -5 0 -13 5 -16 10 -3 6 -2 10 4 10 5
0 13 -4 16 -10z m-1195 -14 c8 -8 23 -16 32 -17 13 -3 15 -8 8 -19 -9 -13 -12
-13 -21 3 -5 9 -18 17 -28 17 -9 0 -25 6 -35 13 -16 12 -16 13 6 14 12 1 29
-4 38 -11z m-270 -41 c17 -9 30 -20 30 -25 0 -5 10 -10 22 -12 30 -4 37 -38 9
-38 -11 0 -23 4 -26 10 -3 5 -21 17 -40 26 -22 10 -35 23 -35 35 0 23 3 23 40
4z m586 -26 c3 -6 1 -16 -5 -22 -8 -8 -17 -5 -33 11 l-22 22 26 0 c15 0 30 -5
34 -11z m474 -13 c6 -8 18 -12 26 -9 17 6 56 -25 48 -38 -13 -22 -84 3 -119
41 -18 20 -17 20 7 20 14 0 31 -6 38 -14z m-432 -19 c2 -12 -3 -17 -17 -17
-12 0 -21 6 -21 13 0 31 32 34 38 4z m-278 -33 c60 -31 63 -36 47 -59 -13 -16
-17 -15 -70 15 -61 34 -72 44 -62 60 10 16 32 12 85 -16z m-542 -37 c4 -19 -6
-21 -27 -8 -16 10 -5 34 12 28 7 -2 13 -11 15 -20z m1062 8 c7 -8 21 -15 31
-15 11 0 19 -2 19 -4 0 -2 3 -11 6 -20 5 -12 0 -16 -20 -16 -16 0 -26 6 -26
15 0 9 -8 14 -22 12 -17 -1 -24 4 -26 21 -4 26 19 30 38 7z m-803 -39 c15 -13
38 -26 51 -30 24 -8 30 -43 8 -52 -16 -6 -101 49 -110 72 -16 41 8 46 51 10z
m573 -40 c6 -8 21 -16 33 -18 31 -4 35 -44 6 -53 -15 -5 -26 -3 -33 7 -6 8
-26 20 -44 27 -18 8 -37 22 -43 32 -9 17 -6 19 29 19 22 0 45 -6 52 -14z
m-1143 -2 c-3 -3 -12 -4 -19 -1 -8 3 -5 6 6 6 11 1 17 -2 13 -5z m842 -60 c31
-18 54 -50 46 -64 -3 -4 -17 -5 -32 -1 -31 8 -69 54 -59 70 9 14 13 14 45 -5z"/>
<path d="M1550 2743 c0 -13 5 -23 10 -23 13 0 13 11 0 30 -8 12 -10 11 -10 -7z"/>
<path d="M1581 2524 c0 -11 3 -14 6 -6 3 7 2 16 -1 19 -3 4 -6 -2 -5 -13z"/>
<path d="M1590 2489 c0 -5 5 -7 10 -4 6 3 10 8 10 11 0 2 -4 4 -10 4 -5 0 -10
-5 -10 -11z"/>
<path d="M1860 1495 c0 -16 -6 -25 -15 -25 -8 0 -15 -9 -15 -20 0 -11 7 -20
15 -20 8 0 15 7 15 15 0 10 10 15 29 15 45 0 61 10 61 36 0 22 -4 24 -45 24
-41 0 -45 -2 -45 -25z"/>
<path d="M1422 1483 c2 -22 9 -29 32 -33 17 -3 32 -14 37 -25 5 -14 8 -4 8 33
l1 52 -41 0 c-38 0 -40 -1 -37 -27z"/>
<path d="M1803 1493 c9 -2 25 -2 35 0 9 3 1 5 -18 5 -19 0 -27 -2 -17 -5z"/>
<path d="M1582 1443 c5 -26 38 -29 38 -4 0 15 -6 21 -21 21 -14 0 -19 -5 -17
-17z"/>
<path d="M1540 1389 c0 -14 5 -19 14 -16 8 3 17 -1 20 -10 4 -9 -1 -17 -14
-20 -11 -3 -20 -9 -20 -14 0 -5 47 -8 105 -7 86 3 105 6 104 18 -1 20 -17 58
-18 43 -1 -21 -22 -15 -28 7 -5 18 -14 20 -84 20 -74 0 -79 -1 -79 -21z m90 1
c0 -5 -2 -10 -4 -10 -3 0 -8 5 -11 10 -3 6 -1 10 4 10 6 0 11 -4 11 -10z m30
-30 c0 -5 -9 -10 -20 -10 -11 0 -20 5 -20 10 0 6 9 10 20 10 11 0 20 -4 20
-10z"/>
<path d="M1664 1249 c3 -15 46 -32 46 -19 0 6 -9 10 -19 10 -11 0 -22 5 -24
10 -3 6 -4 5 -3 -1z"/>
<path d="M1948 1253 c7 -3 16 -2 19 1 4 3 -2 6 -13 5 -11 0 -14 -3 -6 -6z"/>
<path d="M1763 1243 c9 -2 23 -2 30 0 6 3 -1 5 -18 5 -16 0 -22 -2 -12 -5z"/>
<path d="M1630 1229 c0 -5 5 -7 10 -4 6 3 10 8 10 11 0 2 -4 4 -10 4 -5 0 -10
-5 -10 -11z"/>
<path d="M1510 1220 c-8 -5 -10 -10 -5 -10 6 0 17 5 25 10 8 5 11 10 5 10 -5
0 -17 -5 -25 -10z"/>
<path d="M1558 1223 c6 -2 18 -2 25 0 6 3 1 5 -13 5 -14 0 -19 -2 -12 -5z"/>
<path d="M446 687 c-26 -19 -17 -51 17 -55 31 -4 47 20 30 46 -13 22 -26 24
-47 9z"/>
</g>
</svg>
