<?xml version="1.0" standalone="no"?>
<!DOCTYPE svg PUBLIC "-//W3C//DTD SVG 20010904//EN"
 "http://www.w3.org/TR/2001/REC-SVG-20010904/DTD/svg10.dtd">
<svg version="1.0" xmlns="http://www.w3.org/2000/svg"
 width="315.000000pt" height="323.000000pt" viewBox="0 0 315.000000 323.000000"
 preserveAspectRatio="xMidYMid meet">

<g transform="translate(0.000000,323.000000) scale(0.100000,-0.100000)"
fill="#000000" stroke="none">
<path d="M0 1615 l0 -1615 1281 0 c1021 0 1279 3 1273 12 -5 7 -22 33 -40 58
-17 25 -39 60 -49 79 -16 32 -16 35 4 62 12 16 17 29 12 29 -5 0 -7 18 -4 40
4 27 2 40 -6 40 -7 0 -9 5 -5 11 4 8 -1 9 -15 4 -28 -9 -81 12 -81 32 0 8 5
11 11 7 12 -7 8 35 -8 112 -3 16 -7 39 -7 52 -1 12 -4 22 -8 22 -5 0 -8 8 -8
18 0 10 -6 27 -14 38 -8 11 -28 48 -46 82 -17 34 -37 62 -44 62 -7 0 -12 14
-11 39 0 30 3 37 13 29 7 -6 12 -7 12 -1 0 5 15 7 33 4 31 -4 31 -5 7 -12
l-25 -7 25 -1 c19 -1 22 -4 11 -10 -23 -15 36 -79 74 -81 l30 -2 -30 -8 c-20
-5 -24 -8 -10 -9 14 -1 16 -4 8 -9 -10 -7 -10 -12 0 -27 12 -16 34 -19 190
-23 98 -3 177 -9 177 -13 0 -5 -79 -6 -176 -2 -171 6 -176 6 -165 -13 5 -10
22 -68 36 -128 21 -89 23 -111 13 -124 -11 -13 -10 -15 8 -10 18 4 23 0 27
-21 5 -23 119 -231 145 -264 5 -7 12 -24 16 -39 l6 -28 245 1 245 1 0 449 0
449 -157 0 -158 0 3 124 4 124 -164 6 c-280 11 -748 14 -748 5 0 -5 -9 -9 -20
-9 -11 0 -20 5 -20 11 0 8 -4 8 -14 0 -15 -13 -58 -11 -68 4 -5 6 -8 5 -8 -3
0 -8 -5 -10 -12 -5 -18 10 -38 13 -38 4 0 -4 -6 -8 -14 -8 -15 0 -29 34 -18
41 4 2 193 -1 421 -6 227 -5 416 -6 420 -3 3 4 8 77 11 163 l6 157 2 -161 2
-161 73 0 c39 1 98 -3 130 -7 l57 -8 0 35 c0 34 -2 36 -38 40 l-37 4 37 1 37
2 4 123 3 122 2 -147 c2 -136 3 -148 22 -158 11 -6 25 -8 30 -5 6 3 10 2 10
-3 0 -6 8 -8 19 -5 11 3 21 -2 24 -11 5 -12 0 -16 -16 -17 -21 -1 -20 -1 3 -9
l25 -7 -28 -8 c-15 -4 -40 -5 -55 -3 l-27 4 3 -93 3 -93 54 0 c68 0 82 -18 18
-23 -27 -2 12 -4 85 -5 l132 -2 -1 63 c-1 34 -4 52 -6 40 -2 -12 -18 -34 -34
-48 -48 -40 -120 -32 -161 19 -23 28 -23 39 1 26 11 -5 33 -10 50 -10 16 0 33
-4 36 -10 9 -14 26 -13 22 2 -1 6 13 19 32 28 46 23 61 46 61 95 0 40 -1 41
-30 37 -23 -3 -30 0 -30 12 0 11 9 16 30 16 23 0 30 4 30 20 0 18 -7 20 -65
20 -45 0 -65 -4 -65 -12 0 -10 -3 -9 -9 1 -6 9 -20 12 -40 9 -28 -4 -31 -2
-31 24 0 18 -5 28 -15 28 -8 0 -15 5 -15 10 0 6 7 10 15 10 11 0 15 12 15 46
0 37 -3 45 -15 40 -13 -5 -15 9 -13 87 1 59 3 73 5 40 5 -67 23 -69 23 -3 l0
50 105 0 105 0 0 840 0 840 -1575 0 -1575 0 0 -1615z m2862 152 c10 -16 9
-117 -2 -142 -6 -14 -9 5 -9 58 l-1 78 -134 -2 c-92 0 -136 -5 -140 -12 -3 -9
-7 -9 -13 -1 -5 8 -114 13 -333 18 -220 4 -320 3 -310 -4 12 -8 11 -10 -7 -10
-17 0 -23 6 -23 22 l0 21 482 -7 c356 -5 485 -10 490 -19z m58 -7 c0 -5 -5
-10 -11 -10 -5 0 -7 5 -4 10 3 6 8 10 11 10 2 0 4 -4 4 -10z m68 -8 c-27 -2
-48 -7 -48 -13 0 -5 -4 -9 -10 -9 -5 0 -7 6 -4 14 6 16 46 24 84 16 17 -3 10
-6 -22 -8z m-321 -8 c-3 -3 -12 -4 -19 -1 -8 3 -5 6 6 6 11 1 17 -2 13 -5z
m-724 -11 c-7 -2 -21 -2 -30 0 -10 3 -4 5 12 5 17 0 24 -2 18 -5z m745 -7 l67
2 -65 -7 c-70 -8 -80 -6 -79 12 0 7 2 8 5 2 3 -7 32 -10 72 -9z m359 7 c-20
-2 -52 -2 -70 0 -17 2 0 4 38 4 39 0 53 -2 32 -4z m-39 -20 c-10 -2 -28 -2
-40 0 -13 2 -5 4 17 4 22 1 32 -1 23 -4z m-325 -10 c-7 -2 -19 -2 -25 0 -7 3
-2 5 12 5 14 0 19 -2 13 -5z m320 -10 c-7 -2 -19 -2 -25 0 -7 3 -2 5 12 5 14
0 19 -2 13 -5z m-220 -10 c-7 -2 -21 -2 -30 0 -10 3 -4 5 12 5 17 0 24 -2 18
-5z m-203 -18 c0 -8 -4 -15 -10 -15 -5 0 -10 7 -10 15 0 8 5 15 10 15 6 0 10
-7 10 -15z m438 8 c-10 -2 -26 -2 -35 0 -10 3 -2 5 17 5 19 0 27 -2 18 -5z
m-363 -13 c-27 -12 -43 -12 -25 0 8 5 22 9 30 9 10 0 8 -3 -5 -9z m-732 -7
c-7 -2 -21 -2 -30 0 -10 3 -4 5 12 5 17 0 24 -2 18 -5z m105 0 c-10 -2 -28 -2
-40 0 -13 2 -5 4 17 4 22 1 32 -1 23 -4z m980 0 c-15 -2 -42 -2 -60 0 -18 2
-6 4 27 4 33 0 48 -2 33 -4z m-15 -20 c-13 -2 -35 -2 -50 0 -16 2 -5 4 22 4
28 0 40 -2 28 -4z m-285 -10 c-10 -2 -28 -2 -40 0 -13 2 -5 4 17 4 22 1 32 -1
23 -4z m370 -10 c-21 -2 -55 -2 -75 0 -21 2 -4 4 37 4 41 0 58 -2 38 -4z
m-375 -10 c-13 -2 -33 -2 -45 0 -13 2 -3 4 22 4 25 0 35 -2 23 -4z m54 1 c-3
-3 -12 -4 -19 -1 -8 3 -5 6 6 6 11 1 17 -2 13 -5z m256 -11 c-7 -2 -21 -2 -30
0 -10 3 -4 5 12 5 17 0 24 -2 18 -5z m-298 -12 l-50 -5 70 -6 70 -6 -93 -4
c-73 -4 -92 -2 -92 9 0 8 6 11 16 7 8 -3 12 -2 9 4 -4 6 17 9 57 8 l63 -2 -50
-5z m278 -8 c-13 -2 -35 -2 -50 0 -16 2 -5 4 22 4 28 0 40 -2 28 -4z m-945
-38 c8 -8 -222 -5 -235 3 -6 4 43 6 110 4 66 -1 123 -4 125 -7z m619 9 c-3 -3
-12 -4 -19 -1 -8 3 -5 6 6 6 11 1 17 -2 13 -5z m-510 -10 c-3 -3 -12 -4 -19
-1 -8 3 -5 6 6 6 11 1 17 -2 13 -5z m91 -1 c-16 -2 -40 -2 -55 0 -16 2 -3 4
27 4 30 0 43 -2 28 -4z m425 -10 c-7 -2 -19 -2 -25 0 -7 3 -2 5 12 5 14 0 19
-2 13 -5z m80 0 c-13 -2 -33 -2 -45 0 -13 2 -3 4 22 4 25 0 35 -2 23 -4z m-50
-20 c-13 -2 -33 -2 -45 0 -13 2 -3 4 22 4 25 0 35 -2 23 -4z m-86 -35 c-3 -7
-5 -2 -5 12 0 14 2 19 5 13 2 -7 2 -19 0 -25z m-797 11 c0 -5 -22 -8 -50 -7
-65 4 -65 17 0 16 28 0 50 -4 50 -9z m943 4 c-23 -2 -64 -2 -90 0 -26 2 -7 3
42 3 50 0 71 -1 48 -3z m-55 -20 c-16 -2 -40 -2 -55 0 -16 2 -3 4 27 4 30 0
43 -2 28 -4z m-961 -19 c-3 -3 -12 -4 -19 -1 -8 3 -5 6 6 6 11 1 17 -2 13 -5z
m35 -3 c2 -5 17 -10 33 -11 48 -3 67 -1 61 8 -3 5 2 9 10 9 23 0 -8 -28 -32
-28 -42 -2 -108 5 -96 9 7 2 10 8 6 13 -3 5 -1 9 5 9 5 0 11 -4 13 -9z m51 2
c-7 -2 -21 -2 -30 0 -10 3 -4 5 12 5 17 0 24 -2 18 -5z m120 -19 c-4 -10 -9
-12 -16 -5 -5 5 -17 7 -26 4 -11 -4 -10 -1 4 10 23 17 46 12 38 -9z m794 19
c-26 -2 -45 -8 -42 -14 4 -5 -10 -8 -32 -8 -35 2 -36 2 -8 7 l30 5 -30 7 c-20
5 -2 7 50 7 47 0 61 -2 32 -4z m-1014 -20 c-7 -2 -19 -2 -25 0 -7 3 -2 5 12 5
14 0 19 -2 13 -5z m1045 0 c-10 -2 -28 -2 -40 0 -13 2 -5 4 17 4 22 1 32 -1
23 -4z m-785 -10 c-7 -2 -19 -2 -25 0 -7 3 -2 5 12 5 14 0 19 -2 13 -5z m-316
-9 c-3 -3 -12 -4 -19 -1 -8 3 -5 6 6 6 11 1 17 -2 13 -5z m76 -1 c-7 -2 -19
-2 -25 0 -7 3 -2 5 12 5 14 0 19 -2 13 -5z m50 0 c-7 -2 -19 -2 -25 0 -7 3 -2
5 12 5 14 0 19 -2 13 -5z m885 0 c-10 -2 -26 -2 -35 0 -10 3 -2 5 17 5 19 0
27 -2 18 -5z m0 -20 c-10 -2 -26 -2 -35 0 -10 3 -2 5 17 5 19 0 27 -2 18 -5z
m49 1 c-3 -3 -12 -4 -19 -1 -8 3 -5 6 6 6 11 1 17 -2 13 -5z m-49 -21 c-10 -2
-26 -2 -35 0 -10 3 -2 5 17 5 19 0 27 -2 18 -5z m49 1 c-3 -3 -12 -4 -19 -1
-8 3 -5 6 6 6 11 1 17 -2 13 -5z m163 2 c0 -3 -4 -8 -10 -11 -5 -3 -10 -1 -10
4 0 6 5 11 10 11 6 0 10 -2 10 -4z m-1322 -48 c22 -18 42 -41 45 -50 3 -12 16
-19 39 -20 l33 -1 -31 -4 c-27 -4 -30 -7 -26 -33 5 -35 -16 -41 -40 -12 -20
23 -58 104 -58 124 0 9 -6 19 -12 21 -9 4 -9 6 -2 6 7 1 30 -14 52 -31z m1110
25 c-10 -2 -26 -2 -35 0 -10 3 -2 5 17 5 19 0 27 -2 18 -5z m49 1 c-3 -3 -12
-4 -19 -1 -8 3 -5 6 6 6 11 1 17 -2 13 -5z m-49 -21 c-10 -2 -26 -2 -35 0 -10
3 -2 5 17 5 19 0 27 -2 18 -5z m49 1 c-3 -3 -12 -4 -19 -1 -8 3 -5 6 6 6 11 1
17 -2 13 -5z m163 -4 c0 -5 -4 -10 -10 -10 -5 0 -10 5 -10 10 0 6 5 10 10 10
6 0 10 -4 10 -10z m-1232 -17 c-10 -2 -28 -2 -40 0 -13 2 -5 4 17 4 22 1 32
-1 23 -4z m59 1 c-3 -3 -12 -4 -19 -1 -8 3 -5 6 6 6 11 1 17 -2 13 -5z m56 -1
c-7 -2 -21 -2 -30 0 -10 3 -4 5 12 5 17 0 24 -2 18 -5z m945 0 c-15 -2 -42 -2
-60 0 -18 2 -6 4 27 4 33 0 48 -2 33 -4z m-1071 -19 c-3 -3 -12 -4 -19 -1 -8
3 -5 6 6 6 11 1 17 -2 13 -5z m76 -1 c-7 -2 -19 -2 -25 0 -7 3 -2 5 12 5 14 0
19 -2 13 -5z m50 0 c-7 -2 -19 -2 -25 0 -7 3 -2 5 12 5 14 0 19 -2 13 -5z
m945 0 c-15 -2 -42 -2 -60 0 -18 2 -6 4 27 4 33 0 48 -2 33 -4z m172 -3 c0 -5
-4 -10 -10 -10 -5 0 -10 5 -10 10 0 6 5 10 10 10 6 0 10 -4 10 -10z m-1143
-16 c-3 -3 -12 -4 -19 -1 -8 3 -5 6 6 6 11 1 17 -2 13 -5z m941 -1 c-10 -2
-28 -2 -40 0 -13 2 -5 4 17 4 22 1 32 -1 23 -4z m55 0 c-7 -2 -19 -2 -25 0 -7
3 -2 5 12 5 14 0 19 -2 13 -5z m64 1 c-3 -3 -12 -4 -19 -1 -8 3 -5 6 6 6 11 1
17 -2 13 -5z m-144 -21 c-7 -2 -19 -2 -25 0 -7 3 -2 5 12 5 14 0 19 -2 13 -5z
m44 1 c-3 -3 -12 -4 -19 -1 -8 3 -5 6 6 6 11 1 17 -2 13 -5z m40 0 c-3 -3 -12
-4 -19 -1 -8 3 -5 6 6 6 11 1 17 -2 13 -5z m163 -9 c7 -9 10 -18 7 -22 -4 -3
-9 1 -13 10 -3 9 -12 13 -20 10 -8 -3 -14 0 -14 6 0 16 26 13 40 -4z m-252
-12 c-10 -2 -26 -2 -35 0 -10 3 -2 5 17 5 19 0 27 -2 18 -5z m49 1 c-3 -3 -12
-4 -19 -1 -8 3 -5 6 6 6 11 1 17 -2 13 -5z m40 0 c-3 -3 -12 -4 -19 -1 -8 3
-5 6 6 6 11 1 17 -2 13 -5z m56 -1 c-7 -2 -21 -2 -30 0 -10 3 -4 5 12 5 17 0
24 -2 18 -5z m-110 -20 c-7 -2 -19 -2 -25 0 -7 3 -2 5 12 5 14 0 19 -2 13 -5z
m60 0 c-7 -2 -21 -2 -30 0 -10 3 -4 5 12 5 17 0 24 -2 18 -5z m-1063 -30 c0
-16 -4 -23 -8 -18 -4 6 -14 10 -22 10 -8 0 -16 8 -18 18 -3 13 3 17 22 17 22
0 26 -5 26 -27z m390 -47 c0 -10 -13 -16 -37 -19 l-38 -4 43 -1 c37 -2 42 1
44 21 0 12 4 2 8 -23 l7 -45 1 43 c2 30 6 42 17 42 10 0 15 -10 15 -29 0 -16
6 -32 13 -34 7 -3 5 -6 -5 -6 -11 -1 -16 -8 -13 -21 2 -13 -2 -20 -11 -20 -8
0 -14 -9 -14 -21 0 -21 -2 -22 -105 -16 -95 6 -145 19 -145 39 0 5 -8 8 -17 8
-27 1 -57 26 -41 34 7 3 3 4 -9 2 -13 -2 -23 -1 -23 3 0 4 -16 13 -35 20 -19
7 -35 17 -35 23 0 6 11 3 25 -6 18 -12 24 -13 23 -4 -2 7 -10 16 -18 20 -8 4
67 7 168 7 152 1 182 -1 182 -13z m133 -13 c-7 -2 -19 -2 -25 0 -7 3 -2 5 12
5 14 0 19 -2 13 -5z m82 -3 c3 -5 1 -10 -4 -10 -6 0 -11 5 -11 10 0 6 2 10 4
10 3 0 8 -4 11 -10z m-88 -16 c-3 -3 -12 -4 -19 -1 -8 3 -5 6 6 6 11 1 17 -2
13 -5z m31 -21 c-10 -2 -28 -2 -40 0 -13 2 -5 4 17 4 22 1 32 -1 23 -4z m-10
-20 c-10 -2 -26 -2 -35 0 -10 3 -2 5 17 5 19 0 27 -2 18 -5z m15 -20 c-13 -2
-33 -2 -45 0 -13 2 -3 4 22 4 25 0 35 -2 23 -4z m-50 -40 c-7 -2 -19 -2 -25 0
-7 3 -2 5 12 5 14 0 19 -2 13 -5z m-135 -30 c-16 -2 -40 -2 -55 0 -16 2 -3 4
27 4 30 0 43 -2 28 -4z m741 -49 c7 -6 -309 -2 -479 6 -98 5 -39 5 160 2 173
-2 317 -6 319 -8z m-612 -86 c-2 -18 -4 -6 -4 27 0 33 2 48 4 33 2 -15 2 -42
0 -60z m343 22 c0 -5 -4 -10 -10 -10 -5 0 -10 5 -10 10 0 6 5 10 10 10 6 0 10
-4 10 -10z m50 0 c0 -5 -7 -10 -15 -10 -8 0 -15 5 -15 10 0 6 7 10 15 10 8 0
15 -4 15 -10z m-187 -27 c-7 -2 -21 -2 -30 0 -10 3 -4 5 12 5 17 0 24 -2 18
-5z m197 -9 c0 -2 -13 -4 -30 -4 -16 0 -30 4 -30 8 0 5 14 7 30 4 17 -2 30 -6
30 -8z m40 6 c12 -8 11 -10 -7 -10 -13 0 -23 5 -23 10 0 13 11 13 30 0z m83
-7 c-7 -2 -19 -2 -25 0 -7 3 -2 5 12 5 14 0 19 -2 13 -5z m44 1 c-3 -3 -12 -4
-19 -1 -8 3 -5 6 6 6 11 1 17 -2 13 -5z m40 0 c-3 -3 -12 -4 -19 -1 -8 3 -5 6
6 6 11 1 17 -2 13 -5z m53 -9 c0 -8 10 -16 23 -16 l22 -2 -22 -4 c-13 -2 -23
-9 -23 -14 0 -16 -25 -9 -38 11 -10 17 -10 20 3 20 8 0 15 -4 15 -10 0 -5 6
-10 13 -10 6 1 1 10 -12 20 -23 20 -23 20 -2 20 12 0 21 -6 21 -15z m-457 -2
c-7 -2 -21 -2 -30 0 -10 3 -4 5 12 5 17 0 24 -2 18 -5z m215 -10 c-10 -2 -26
-2 -35 0 -10 3 -2 5 17 5 19 0 27 -2 18 -5z m55 0 c-7 -2 -19 -2 -25 0 -7 3
-2 5 12 5 14 0 19 -2 13 -5z m80 0 c-7 -2 -19 -2 -25 0 -7 3 -2 5 12 5 14 0
19 -2 13 -5z m47 -7 c0 -8 6 -17 13 -19 7 -3 5 -6 -5 -6 -10 -1 -18 5 -18 13
0 8 -6 17 -12 19 -8 3 -6 6 5 6 9 1 17 -5 17 -13z m-287 -13 c-7 -2 -19 -2
-25 0 -7 3 -2 5 12 5 14 0 19 -2 13 -5z m125 0 c-10 -2 -26 -2 -35 0 -10 3 -2
5 17 5 19 0 27 -2 18 -5z m62 -2 c0 -5 -9 -7 -20 -4 -11 3 -20 7 -20 9 0 2 9
4 20 4 11 0 20 -4 20 -9z m30 5 c0 -3 -4 -8 -10 -11 -5 -3 -10 -1 -10 4 0 6 5
11 10 11 6 0 10 -2 10 -4z m50 -12 c0 -2 -9 -4 -20 -4 -11 0 -20 4 -20 9 0 5
9 7 20 4 11 -3 20 -7 20 -9z m123 -1 c-7 -2 -19 -2 -25 0 -7 3 -2 5 12 5 14 0
19 -2 13 -5z m-405 -10 c-10 -2 -26 -2 -35 0 -10 3 -2 5 17 5 19 0 27 -2 18
-5z m130 0 c-10 -2 -26 -2 -35 0 -10 3 -2 5 17 5 19 0 27 -2 18 -5z m62 -3 c0
-5 -6 -10 -12 -10 -9 0 -8 -4 2 -10 12 -8 11 -10 -7 -10 -16 0 -21 6 -20 20 1
20 37 30 37 10z m73 -7 c-7 -2 -19 -2 -25 0 -7 3 -2 5 12 5 14 0 19 -2 13 -5z
m44 1 c-3 -3 -12 -4 -19 -1 -8 3 -5 6 6 6 11 1 17 -2 13 -5z m40 0 c-3 -3 -12
-4 -19 -1 -8 3 -5 6 6 6 11 1 17 -2 13 -5z m46 -1 c-7 -2 -19 -2 -25 0 -7 3
-2 5 12 5 14 0 19 -2 13 -5z m-490 -10 c-7 -2 -21 -2 -30 0 -10 3 -4 5 12 5
17 0 24 -2 18 -5z m227 -3 c11 -7 7 -10 -17 -10 -18 0 -33 5 -33 10 0 13 30
13 50 0z m133 -7 c-7 -2 -19 -2 -25 0 -7 3 -2 5 12 5 14 0 19 -2 13 -5z m44 1
c-3 -3 -12 -4 -19 -1 -8 3 -5 6 6 6 11 1 17 -2 13 -5z m40 0 c-3 -3 -12 -4
-19 -1 -8 3 -5 6 6 6 11 1 17 -2 13 -5z m46 -1 c-7 -2 -19 -2 -25 0 -7 3 -2 5
12 5 14 0 19 -2 13 -5z m-460 -30 c-7 -2 -19 -2 -25 0 -7 3 -2 5 12 5 14 0 19
-2 13 -5z m87 -3 c0 -5 -11 -10 -25 -10 -14 0 -25 5 -25 10 0 6 11 10 25 10
14 0 25 -4 25 -10z m-2385 -180 c3 -5 1 -10 -4 -10 -6 0 -11 5 -11 10 0 6 2
10 4 10 3 0 8 -4 11 -10z m2325 -194 c0 -3 -10 -22 -22 -42 -14 -24 -23 -32
-26 -23 -3 8 -9 19 -14 26 -6 8 -1 16 19 27 29 16 43 19 43 12z"/>
<path d="M1933 1123 c9 -2 23 -2 30 0 6 3 -1 5 -18 5 -16 0 -22 -2 -12 -5z"/>
<path d="M1903 1103 c15 -2 37 -2 50 0 12 2 0 4 -28 4 -27 0 -38 -2 -22 -4z"/>
<path d="M1903 1083 c15 -2 37 -2 50 0 12 2 0 4 -28 4 -27 0 -38 -2 -22 -4z"/>
<path d="M2038 1083 c12 -2 32 -2 45 0 12 2 2 4 -23 4 -25 0 -35 -2 -22 -4z"/>
<path d="M1928 1063 c6 -2 18 -2 25 0 6 3 1 5 -13 5 -14 0 -19 -2 -12 -5z"/>
<path d="M2038 1063 c12 -2 32 -2 45 0 12 2 2 4 -23 4 -25 0 -35 -2 -22 -4z"/>
<path d="M2048 1043 c12 -2 30 -2 40 0 9 3 -1 5 -23 4 -22 0 -30 -2 -17 -4z"/>
<path d="M2033 1023 c9 -2 23 -2 30 0 6 3 -1 5 -18 5 -16 0 -22 -2 -12 -5z"/>
<path d="M2088 1023 c7 -3 16 -2 19 1 4 3 -2 6 -13 5 -11 0 -14 -3 -6 -6z"/>
<path d="M2951 1508 c1 -22 3 -26 6 -13 3 11 10 26 15 33 8 9 6 12 -6 12 -12
0 -16 -9 -15 -32z"/>
<path d="M2995 1513 c15 -63 55 -68 55 -7 0 31 -2 34 -31 34 -29 0 -31 -2 -24
-27z"/>
<path d="M3060 1495 c0 -32 4 -45 14 -45 8 0 16 7 20 15 3 8 12 15 21 15 8 0
15 5 15 11 0 5 -4 7 -10 4 -5 -3 -10 1 -10 9 0 24 19 19 30 -6 8 -21 9 -20 9
10 1 31 0 32 -44 32 l-45 0 0 -45z"/>
<path d="M2970 1506 c0 -9 5 -16 10 -16 6 0 10 4 10 9 0 6 -4 13 -10 16 -5 3
-10 -1 -10 -9z"/>
<path d="M3130 1455 c7 -9 15 -13 17 -11 7 7 -7 26 -19 26 -6 0 -6 -6 2 -15z"/>
<path d="M2927 1433 c-11 -10 -8 -43 3 -43 6 0 10 11 10 25 0 26 -2 29 -13 18z"/>
<path d="M2950 1415 c0 -23 3 -25 50 -25 43 0 50 3 50 20 0 24 -25 26 -38 3
-9 -14 -11 -14 -21 5 -16 30 -41 28 -41 -3z"/>
<path d="M3083 1433 c-15 -3 -23 -12 -23 -24 0 -16 7 -19 44 -19 38 0 45 3 43
19 0 11 -4 18 -8 15 -4 -2 -10 0 -14 6 -3 5 -9 9 -13 9 -4 -1 -17 -4 -29 -6z"/>
<path d="M2951 1348 c0 -26 2 -29 8 -14 7 18 9 16 19 -12 13 -37 18 -38 50
-14 16 13 23 26 20 43 -3 21 -9 24 -50 27 l-48 3 1 -33z"/>
<path d="M3060 1332 c0 -50 8 -57 35 -32 19 18 23 19 28 6 12 -30 27 -16 27
24 l0 40 -45 0 -45 0 0 -38z"/>
<path d="M2957 1283 c-4 -3 -7 -17 -7 -30 0 -22 3 -24 47 -21 36 2 49 7 51 21
5 22 -24 23 -37 0 -5 -10 -11 -16 -14 -13 -2 3 -10 15 -19 27 -8 13 -18 20
-21 16z"/>
<path d="M3060 1250 c0 -17 7 -20 45 -20 l45 0 -20 20 c-11 11 -31 20 -45 20
-18 0 -25 -5 -25 -20z"/>
<path d="M2873 1143 c9 -2 23 -2 30 0 6 3 -1 5 -18 5 -16 0 -22 -2 -12 -5z"/>
<path d="M3085 1000 c4 -6 11 -8 16 -5 14 9 11 15 -7 15 -8 0 -12 -5 -9 -10z"/>
<path d="M2980 980 c20 -13 33 -13 25 0 -3 6 -14 10 -23 10 -15 0 -15 -2 -2
-10z"/>
</g>
</svg>
