<svg width="38" height="33" viewBox="0 0 38 33" fill="none" xmlns="http://www.w3.org/2000/svg">
<path d="M21.346 29.2234C22.1465 28.7556 22.9701 28.1159 23.8678 27.4082C24.3633 27.0176 24.868 26.6285 25.3775 26.2356L25.3807 26.2332L25.3807 26.2332L25.3943 26.2227C27.5341 24.573 29.7601 22.8569 31.6029 20.7818C33.8522 18.249 35.4442 15.2645 35.4442 11.3858C35.4442 7.5639 33.2839 4.34005 30.3059 2.9788C27.6413 1.76079 24.1719 1.97504 20.8275 4.90024L20.5326 5.15819L20.8097 5.43519L23.3069 7.9316L23.3069 7.93163C23.6657 8.29022 23.6658 8.87169 23.3072 9.23041L23.3071 9.23045C22.9486 9.58915 22.3671 9.58925 22.0084 9.23068L22.0084 9.23066L18.5837 5.80722L18.5822 5.80566L18.568 5.79129C14.9489 2.03219 11.0762 1.64437 8.15689 2.9788L8.30922 3.31206L8.15688 2.9788C5.17888 4.34006 3.01868 7.56391 3.01868 11.3858C3.01868 15.2645 4.61069 18.249 6.85991 20.7818L7.1339 20.5385L21.1611 28.907M21.346 29.2234L21.1611 28.907M21.346 29.2234C21.346 29.2234 21.346 29.2234 21.346 29.2234L21.1611 28.907M21.346 29.2234C20.5452 29.6915 19.8548 29.9334 19.2314 29.9334C18.608 29.9334 17.9176 29.6915 17.1169 29.2234M21.1611 28.907C20.3859 29.3602 19.7618 29.5669 19.2314 29.5669C18.7011 29.5669 18.077 29.3602 17.3018 28.907M17.1169 29.2234C17.1169 29.2234 17.1169 29.2234 17.1169 29.2234L17.3018 28.907M17.1169 29.2234C16.3163 28.7556 15.4927 28.1159 14.5951 27.4082M17.1169 29.2234L17.3018 28.907M17.3018 28.907L14.5951 27.4082M14.5951 27.4082C14.5951 27.4082 14.5951 27.4082 14.5951 27.4082L14.822 27.1204L14.5951 27.4082ZM14.5951 27.4082C14.0995 27.0176 13.5949 26.6284 13.0853 26.2355L13.0823 26.2332L13.306 25.943L13.0822 26.2332L14.5951 27.4082ZM21.0688 5.17605L21.3278 4.9169L21.3488 4.93784C21.2554 5.01507 21.162 5.09446 21.0688 5.17605ZM21.0688 5.17605L21.31 5.45186C21.3162 5.44646 21.3223 5.44108 21.3285 5.43571L21.0688 5.17605ZM18.9871 3.64446L19.2314 3.86306L19.4758 3.64447C23.3386 0.188433 27.6199 -0.268612 31.0695 1.30823L31.2214 0.976011L31.0696 1.30823C34.7298 2.98131 37.281 6.87672 37.281 11.3858C37.281 15.8377 35.4303 19.2383 32.9764 22.0014C31.0053 24.2208 28.5882 26.0834 26.4243 27.7495C25.935 28.1262 25.4585 28.4932 25.005 28.8507C24.124 29.5451 23.2018 30.2665 22.2727 30.8093L22.4576 31.1257L22.2727 30.8093C21.3439 31.352 20.3211 31.7702 19.2314 31.7702C18.1417 31.7702 17.119 31.352 16.1901 30.8093C15.2611 30.2665 14.3387 29.545 13.458 28.8507L13.4579 28.8507C13.0044 28.4932 12.5279 28.1262 12.0386 27.7495C9.87464 26.0834 7.4575 24.2208 5.4865 22.0014L5.21252 22.2447L5.4865 22.0014C3.0326 19.2383 1.18185 15.8377 1.18185 11.3858C1.18185 6.87672 3.73307 2.98131 7.39325 1.30823C10.8429 -0.268613 15.1243 0.188436 18.9871 3.64446Z" fill="white" stroke="#145959" stroke-width="0.732851"/>
</svg>
