<svg width="19" height="21" viewBox="0 0 19 21" fill="none" xmlns="http://www.w3.org/2000/svg">
<path d="M18.7589 8.95801H18.0017V8.91654H9.54117V12.9135H14.8539C14.0788 15.2403 11.9961 16.9105 9.54117 16.9105C6.4263 16.9105 3.90084 14.226 3.90084 10.915C3.90084 7.60402 6.4263 4.91954 9.54117 4.91954C10.979 4.91954 12.2871 5.49611 13.2831 6.4379L15.942 3.61152C14.2631 1.94828 12.0173 0.922546 9.54117 0.922546C4.34972 0.922546 0.140625 5.39668 0.140625 10.915C0.140625 16.4334 4.34972 20.9075 9.54117 20.9075C14.7326 20.9075 18.9417 16.4334 18.9417 10.915C18.9417 10.245 18.8769 9.59103 18.7589 8.95801Z" fill="#FFC107"/>
<path d="M9.5412 20.9075C11.9694 20.9075 14.1757 19.9197 15.8438 18.3134L12.9343 15.6964C11.9588 16.485 10.7668 16.9115 9.5412 16.9105C7.09612 16.9105 5.02001 15.2533 4.23788 12.9405L1.17236 15.4511C2.72815 18.6872 5.88768 20.9075 9.5412 20.9075Z" fill="#4CAF50"/>
<path d="M18.7587 8.95803H18.0015V8.91656H9.54102V12.9136H14.8537C14.483 14.0209 13.8151 14.9886 12.9327 15.697L12.9341 15.696L15.8436 18.313C15.6377 18.5118 18.9416 15.9113 18.9416 10.9151C18.9416 10.2451 18.8767 9.59106 18.7587 8.95803Z" fill="#1976D2"/>
<path d="M1.22461 6.26403L4.31316 8.67172C5.14887 6.47237 7.1728 4.91954 9.54127 4.91954C10.9791 4.91954 12.2872 5.49611 13.2832 6.4379L15.9421 3.61152C14.2632 1.94828 12.0174 0.922546 9.54127 0.922546C5.93052 0.922546 2.7992 3.08942 1.22461 6.26403Z" fill="#FF3D00"/>
</svg>
