<svg width="40" height="40" viewBox="0 0 40 40" fill="none" xmlns="http://www.w3.org/2000/svg">
<path d="M31.8454 3.05596C32.5214 2.37984 33.4386 2 34.3946 2C35.3508 2 36.268 2.37984 36.944 3.05596C37.6202 3.7321 38 4.64912 38 5.6053C38 6.5615 37.6202 7.47852 36.944 8.15464L20.7982 24.3004L14 26L15.6996 19.2018L31.8454 3.05596Z" stroke="white" stroke-width="4" stroke-linecap="round" stroke-linejoin="round"/>
<path d="M28.001 8L32.001 12" stroke="white" stroke-width="4" stroke-linecap="round" stroke-linejoin="round"/>
<path d="M21 2H20C10.0589 2 2 10.0589 2 20C2 29.9412 10.0589 38 20 38C29.9412 38 38 29.9412 38 20V19" stroke="white" stroke-width="4" stroke-linecap="round"/>
</svg>
