<svg width="35" height="34" viewBox="0 0 35 34" fill="none" xmlns="http://www.w3.org/2000/svg">
<path d="M27.283 15.1011V21.518C27.283 21.9351 27.2669 22.3362 27.2188 22.7212C26.8498 27.0526 24.2991 29.2022 19.5987 29.2022H18.9571C18.556 29.2022 18.171 29.3948 17.9303 29.7156L16.0053 32.2824C15.155 33.4214 13.7754 33.4214 12.9252 32.2824L11.0001 29.7156C10.7915 29.4429 10.3263 29.2022 9.97339 29.2022H9.33172C4.21424 29.2022 1.64746 27.9349 1.64746 21.518V15.1011C1.64746 10.4007 3.81318 7.85003 8.12855 7.48106C8.51356 7.43293 8.91462 7.41687 9.33172 7.41687H19.5987C24.7162 7.41687 27.283 9.98365 27.283 15.1011Z" stroke="white" stroke-width="1.37409" stroke-miterlimit="10" stroke-linecap="round" stroke-linejoin="round"/>
<path d="M33.7002 8.68425V15.1011C33.7002 19.8176 31.5345 22.3522 27.2191 22.7212C27.2673 22.3362 27.2833 21.9351 27.2833 21.518V15.1011C27.2833 9.98368 24.7165 7.4169 19.5991 7.4169H9.33208C8.91498 7.4169 8.51392 7.43296 8.12891 7.48109C8.49788 3.16572 11.0486 1 15.7489 1H26.016C31.1334 1 33.7002 3.56678 33.7002 8.68425Z" stroke="white" stroke-width="1.37409" stroke-miterlimit="10" stroke-linecap="round" stroke-linejoin="round"/>
<path d="M20.0889 19.0475H20.1033" stroke="white" stroke-width="3.20845" stroke-linecap="round" stroke-linejoin="round"/>
<path d="M14.4746 19.0475H14.489" stroke="white" stroke-width="3.20845" stroke-linecap="round" stroke-linejoin="round"/>
<path d="M8.8584 19.0475H8.87284" stroke="white" stroke-width="3.20845" stroke-linecap="round" stroke-linejoin="round"/>
</svg>
