<svg width="26" height="29" viewBox="0 0 26 29" fill="none" xmlns="http://www.w3.org/2000/svg">
<path opacity="0.7" d="M2.79364 13.4213L2.25432 13.3202L2.79364 13.4213C3.09725 11.802 3.31666 10.6371 3.59739 9.75549C3.87351 8.88836 4.19045 8.35913 4.65083 7.97705C5.11121 7.59497 5.68977 7.38099 6.59293 7.2694C7.51117 7.15595 8.69657 7.15498 10.3441 7.15498H15.8873C17.5348 7.15498 18.7202 7.15595 19.6384 7.2694C20.5415 7.38099 21.1201 7.59497 21.5805 7.97706C22.0409 8.35913 22.3578 8.88835 22.6339 9.75548C22.9146 10.6371 23.134 11.802 23.4376 13.4213L24.4665 18.9085C24.8929 21.1828 25.2005 22.8306 25.2558 24.0971C25.3104 25.3484 25.1121 26.1235 24.6194 26.7173C24.1266 27.311 23.4013 27.6488 22.1614 27.8257C20.9064 28.0048 19.2301 28.0061 16.9161 28.0061H9.31522C7.00121 28.0061 5.32496 28.0048 4.06998 27.8257C2.83 27.6488 2.10471 27.311 1.61195 26.7172C1.11919 26.1235 0.920841 25.3484 0.975459 24.0971C1.03074 22.8306 1.33835 21.1828 1.7648 18.9085L2.79364 13.4213Z" stroke="white" stroke-width="1.09743"/>
<path d="M13.1159 1.57879C11.1083 1.57879 9.48064 3.20633 9.48064 5.21402V6.03783C9.1428 6.03875 8.82304 6.04079 8.52039 6.04537V5.21402C8.52039 2.676 10.5779 0.618538 13.1159 0.618538C15.6539 0.618538 17.7114 2.676 17.7114 5.21402V6.04534C17.4087 6.04076 17.0889 6.03872 16.7511 6.0378V5.21402C16.7511 3.20633 15.1235 1.57879 13.1159 1.57879Z" stroke="white" stroke-width="1.09743"/>
<path d="M9.68591 18.7923L9.6859 18.7923C9.59756 18.5423 9.32332 18.4113 9.0733 18.4995L9.68591 18.7923ZM9.68591 18.7923C10.1853 20.2052 11.5327 21.2158 13.1144 21.2158C14.6961 21.2158 16.0435 20.2052 16.5429 18.7923L16.543 18.7922M9.68591 18.7923L16.543 18.7922M16.543 18.7922C16.6313 18.5423 16.9055 18.4113 17.1555 18.4996L16.543 18.7922ZM17.4482 19.1123L17.4483 19.1122C17.5366 18.8624 17.4057 18.5881 17.1556 18.4996L17.4482 19.1123ZM17.4482 19.1123C16.8176 20.8968 15.1158 22.176 13.1144 22.176C11.1131 22.176 9.41126 20.8968 8.78054 19.1123L8.78053 19.1123M17.4482 19.1123L8.78053 19.1123M8.78053 19.1123C8.69221 18.8624 8.82314 18.5881 9.07318 18.4996L8.78053 19.1123Z" stroke="white" stroke-width="1.09743"/>
</svg>
