<svg width="25" height="25" viewBox="0 0 25 25" fill="none" xmlns="http://www.w3.org/2000/svg">
<path d="M18.0398 18.0031L23.1165 23.1165L18.0398 18.0031ZM20.7703 11.3851C20.7703 16.5684 16.5684 20.7703 11.3851 20.7703C6.20186 20.7703 2 16.5684 2 11.3851C2 6.20186 6.20186 2 11.3851 2C16.5684 2 20.7703 6.20186 20.7703 11.3851Z" fill="#2E90EB"/>
<path d="M18.0398 18.0031L23.1165 23.1165M20.7703 11.3851C20.7703 16.5684 16.5684 20.7703 11.3851 20.7703C6.20186 20.7703 2 16.5684 2 11.3851C2 6.20186 6.20186 2 11.3851 2C16.5684 2 20.7703 6.20186 20.7703 11.3851Z" stroke="white" stroke-width="2.34628" stroke-linecap="round" stroke-linejoin="round"/>
</svg>
