<svg width="40" height="39" viewBox="0 0 40 39" fill="none" xmlns="http://www.w3.org/2000/svg">
<path d="M38.115 36.6705L38.1247 36.6608L38.1334 36.6504C38.5698 36.1267 38.781 35.4392 38.781 34.7818C38.781 34.1262 38.5702 33.4639 38.115 33.0087L32.5649 27.4587C31.6162 26.51 30.1889 26.4091 29.2655 27.2427L27.5206 25.4978C29.7681 22.8554 31.1111 19.4772 31.1111 15.8C31.1111 7.46552 24.3495 0.7 16.165 0.7C7.98253 0.7 1.21892 7.46348 1.21892 15.6458C1.21892 23.8282 7.98253 30.5917 16.165 30.5917C19.8314 30.5917 23.3549 29.256 25.8686 27.0068L27.6401 28.7783C26.9525 29.7964 26.9886 31.2102 27.8239 32.0455L33.374 37.5955C33.9126 38.1341 34.6191 38.3 35.282 38.3C35.9449 38.3 36.6514 38.1341 37.19 37.5955L38.115 36.6705ZM8.74292 21.4102L8.45654 21.6966L6.20196 19.442L6.1141 19.3542H5.98983C5.99046 19.3542 5.99028 19.3541 5.98921 19.354C5.985 19.3534 5.9669 19.351 5.92905 19.3406C5.88562 19.3288 5.8361 19.3124 5.77636 19.2925L5.77247 19.2912C5.71742 19.2728 5.65293 19.2513 5.59181 19.2347C5.53327 19.2187 5.45332 19.2 5.37316 19.2H3.88782C3.49605 18.0743 3.36062 16.9357 3.36062 15.6458C3.36062 10.7513 6.28696 6.43222 10.418 4.28764L13.3252 6.77951L12.2149 9.00013C12.0997 9.13754 12.0547 9.30616 12.0341 9.42985C12.0107 9.57016 12.0108 9.70629 12.0108 9.78265V9.7875C12.0108 9.92644 12.079 10.0313 12.1285 10.0923C12.1806 10.1563 12.2442 10.2109 12.2968 10.253C12.3325 10.2816 12.3739 10.3126 12.4102 10.3398C12.4261 10.3518 12.4411 10.3631 12.4542 10.373C12.5034 10.4105 12.5378 10.4388 12.5612 10.4621L12.6126 10.5136L12.6819 10.5357L16.2425 11.6751L15.3777 14.146L13.5607 13.2374C13.4233 13.1222 13.2546 13.0773 13.1309 13.0567C12.9906 13.0333 12.8545 13.0333 12.7781 13.0333H12.7733C12.6344 13.0333 12.5295 13.1015 12.4685 13.1511C12.4045 13.2031 12.3499 13.2668 12.3078 13.3194C12.2792 13.3551 12.2482 13.3965 12.2209 13.4327C12.209 13.4487 12.1977 13.4636 12.1878 13.4767C12.1503 13.526 12.122 13.5604 12.0986 13.5837L12.0486 13.6338L12.0262 13.701L10.707 17.6583H9.22739C8.79447 17.6583 8.56366 17.8893 8.4065 18.0466L8.39858 18.0545C8.25499 18.1981 8.20264 18.3892 8.1799 18.5257C8.15651 18.666 8.15653 18.8021 8.15654 18.8785L8.15654 18.8833V18.9182L8.16452 18.952L8.74292 21.4102ZM11.0575 21.5759L10.5501 19.8H11.5399C11.9453 19.8 12.3671 19.5957 12.5791 19.1717L12.5895 19.151L12.5965 19.1289L13.726 15.5993L15.6896 16.5156C15.8264 16.6285 15.9931 16.6729 16.1157 16.6933C16.256 16.7167 16.3921 16.7167 16.4685 16.7167H16.4734H16.5976L16.6855 16.6288L16.9167 16.3976L17.148 16.1663L17.1981 16.1162L17.2205 16.049L18.7622 11.424C18.8684 11.1054 18.8165 10.8199 18.6741 10.592C18.5391 10.376 18.334 10.2282 18.1492 10.1358L18.1333 10.1279L18.1167 10.1219L14.5716 8.84572L15.4913 6.87508C15.6796 6.66618 15.7486 6.42258 15.6852 6.1689C15.6261 5.93247 15.461 5.7301 15.298 5.56703L15.2894 5.55845L15.2801 5.55058L12.6571 3.32109C13.8447 3.06262 15.0071 2.84167 16.165 2.84167C22.2618 2.84167 27.3326 7.09915 28.6199 12.8643L25.0249 14.7336C24.7951 14.759 24.6208 14.8898 24.5103 15.0555C24.3931 15.2313 24.3443 15.4472 24.3443 15.6458V16.7549L23.4409 17.6583H20.7901C20.5914 17.6583 20.3756 17.7071 20.1997 17.8243C20.0334 17.9352 19.9022 18.1105 19.8776 18.3417L18.3634 21.37C18.269 21.5588 18.2089 21.7734 18.2377 22.0039C18.2669 22.2376 18.3829 22.4505 18.5738 22.6413L20.1155 24.183C20.3588 24.4263 20.6323 24.4257 20.9029 24.4251C20.9167 24.425 20.9305 24.425 20.9443 24.425H21.6531L22.4294 26.7541C20.5164 27.7556 18.476 28.45 16.165 28.45C11.2134 28.45 6.82078 25.4894 4.76705 21.3417H4.94055L7.72476 24.1258C7.75834 24.2055 7.81522 24.266 7.87386 24.3066C7.95458 24.3625 8.04467 24.3871 8.10864 24.3999C8.23467 24.4251 8.37518 24.425 8.4487 24.425L8.45654 24.425H8.4614C8.53777 24.425 8.6739 24.425 8.8142 24.4016C8.95064 24.3789 9.14176 24.3266 9.28535 24.183L10.827 22.6413L10.8615 22.6069L10.8832 22.5633C11.0692 22.1914 11.0691 21.8246 11.0691 21.6645V21.6583V21.6163L11.0575 21.5759ZM28.9694 15.0521V15.0525V15.0545V15.0566V15.0586V15.0607V15.0627V15.0648V15.0668V15.0689V15.0709V15.073V15.075V15.0771V15.0791V15.0812V15.0833V15.0853V15.0874V15.0894V15.0915V15.0936V15.0957V15.0977V15.0998V15.1019V15.104V15.1061V15.1081V15.1102V15.1123V15.1144V15.1165V15.1186V15.1207V15.1228V15.1249V15.127V15.1291V15.1312V15.1333V15.1354V15.1376V15.1397V15.1418V15.1439V15.146V15.1482V15.1503V15.1524V15.1545V15.1567V15.1588V15.1609V15.1631V15.1652V15.1674V15.1695V15.1717V15.1738V15.176V15.1781V15.1803V15.1824V15.1846V15.1868V15.1889V15.1911V15.1933V15.1954V15.1976V15.1998V15.202V15.2041V15.2063V15.2085V15.2107V15.2129V15.2151V15.2173V15.2195V15.2217V15.2239V15.2261V15.2283V15.2305V15.2327V15.2349V15.2371V15.2393V15.2416V15.2438V15.246V15.2482V15.2505V15.2527V15.2549V15.2572V15.2594V15.2617V15.2639V15.2661V15.2684V15.2706V15.2729V15.2752V15.2774V15.2797V15.2819V15.2842V15.2865V15.2888V15.291V15.2933V15.2956V15.2979V15.3002V15.3024V15.3047V15.307V15.3093V15.3116V15.3139V15.3162V15.3185V15.3208V15.3231V15.3255V15.3278V15.3301V15.3324V15.3347V15.3371V15.3394V15.3417V15.3441V15.3464V15.3487V15.3511V15.3534V15.3558V15.3581V15.3605V15.3628V15.3652V15.3676V15.3699V15.3723V15.3747V15.377V15.3794V15.3818V15.3842V15.3866V15.3889V15.3913V15.3937V15.3961V15.3985V15.4009V15.4033V15.4057V15.4081V15.4106V15.413V15.4154V15.4178V15.4202V15.4227V15.4251V15.4275V15.43V15.4324V15.4348V15.4373V15.4397V15.4422V15.4446V15.4471V15.4496V15.452V15.4545V15.457V15.4594V15.4619V15.4644V15.4669V15.4694V15.4718V15.4743V15.4768V15.4793V15.4818V15.4843V15.4868V15.4893V15.4919V15.4944V15.4969V15.4994V15.5019V15.5045V15.507V15.5095V15.5121V15.5146V15.5171V15.5197V15.5222V15.5248V15.5274V15.5299V15.5325V15.535V15.5376V15.5402V15.5428V15.5453V15.5479V15.5505V15.5531V15.5557V15.5583V15.5609V15.5635V15.5661V15.5687V15.5713V15.5739V15.5765V15.5792V15.5818V15.5844V15.5871V15.5897V15.5923V15.595V15.5976V15.6003V15.6029V15.6056V15.6082V15.6109V15.6136V15.6162V15.6189V15.6216V15.6243V15.6269V15.6296V15.6323V15.635V15.6377V15.6404V15.6431V15.6458C28.9694 19.7092 27.1538 23.2121 24.1884 25.621L23.39 22.9596L23.3825 22.9348L23.371 22.9117C23.1589 22.4876 22.7371 22.2833 22.3318 22.2833H21.2227L20.5385 21.5991L21.438 19.8H23.8735C23.9537 19.8 24.0336 19.7813 24.0921 19.7653C24.1533 19.7487 24.2178 19.7272 24.2728 19.7088L24.2767 19.7075C24.3364 19.6876 24.386 19.6712 24.4294 19.6594C24.4672 19.649 24.4853 19.6466 24.4895 19.646C24.4906 19.6459 24.4908 19.6458 24.4902 19.6458H24.6144L24.7023 19.558L26.244 18.0163C26.4874 17.7729 26.4867 17.4995 26.4861 17.2289C26.4861 17.2151 26.486 17.2013 26.486 17.1875V16.2937L28.9694 15.0521ZM36.5736 35.205L35.6866 36.092C35.4954 36.2832 35.2228 36.2832 35.0316 36.092L29.4815 30.542C29.2904 30.3509 29.2904 30.0783 29.4815 29.8871L30.4066 28.9621C30.4404 28.9282 30.4637 28.9173 30.5038 28.9093C30.5645 28.8971 30.6461 28.8958 30.8111 28.8958C30.9761 28.8958 31.0577 28.8971 31.1184 28.9093C31.1586 28.9173 31.1818 28.9282 31.2157 28.9621L36.6776 34.4239C36.6766 34.5471 36.6732 34.6792 36.6601 34.8097C36.6444 34.9672 36.6163 35.1025 36.5736 35.205Z" fill="white" stroke="white" stroke-width="0.6"/>
</svg>
