<svg width="58" height="40" viewBox="0 0 58 40" fill="none" xmlns="http://www.w3.org/2000/svg">
<path d="M21.5 11V29M12.5 20H30.5M41 14L48.7304 9.36176C51.1097 7.93409 52.2995 7.22027 53.2784 7.31153C54.1319 7.39109 54.9107 7.832 55.418 8.52299C56 9.31544 56 10.7029 56 13.4777V26.5223C56 29.297 56 30.6845 55.418 31.4771C54.9107 32.168 54.1319 32.609 53.2784 32.6885C52.2995 32.7797 51.1097 32.066 48.7304 30.6383L41 26M11.6 38H31.4C34.7603 38 36.4406 38 37.724 37.346C38.8529 36.7709 39.7709 35.8529 40.346 34.724C41 33.4406 41 31.7603 41 28.4V11.6C41 8.2397 41 6.55952 40.346 5.27606C39.7709 4.14707 38.8529 3.22919 37.724 2.65397C36.4406 2 34.7603 2 31.4 2H11.6C8.2397 2 6.55952 2 5.27606 2.65397C4.14707 3.22919 3.22919 4.14707 2.65397 5.27606C2 6.55952 2 8.23967 2 11.6V28.4C2 31.7603 2 33.4406 2.65397 34.724C3.22919 35.8529 4.14707 36.7709 5.27606 37.346C6.55952 38 8.23967 38 11.6 38Z" stroke="white" stroke-width="4" stroke-linecap="round" stroke-linejoin="round"/>
</svg>
